<svg width="648" height="800" viewBox="0 0 648 800" fill="none" xmlns="http://www.w3.org/2000/svg">
<g filter="url(#filter0_d_4_4601)">
<rect x="48" y="28" width="552" height="704" rx="32" fill="white"/>
<path d="M223.073 75.4V95H227.273V87.048H234.441V83.604H227.273V79.012H236.009V75.4H223.073ZM241.607 75.26C241.159 74.84 240.627 74.616 239.983 74.616C239.311 74.616 238.779 74.84 238.331 75.26C237.883 75.68 237.687 76.212 237.687 76.828C237.687 77.472 237.883 78.004 238.331 78.424C238.779 78.872 239.311 79.068 239.983 79.068C240.627 79.068 241.159 78.872 241.607 78.424C242.027 78.004 242.251 77.472 242.251 76.828C242.251 76.212 242.027 75.68 241.607 75.26ZM237.995 80.608V95H241.943V80.608H237.995ZM253.458 80.608H252.786C251.722 80.608 250.854 80.804 250.238 81.168C249.594 81.532 249.062 82.064 248.642 82.764L248.278 80.608H244.694V95H248.642V87.944C248.642 86.796 248.894 85.872 249.426 85.2C249.93 84.528 250.77 84.192 251.89 84.192H253.458V80.608ZM258.168 90.212H254.416C254.472 91.752 255.144 92.956 256.404 93.852C257.636 94.748 259.26 95.168 261.276 95.168C262.564 95.168 263.684 95 264.664 94.608C265.644 94.216 266.4 93.684 266.96 92.956C267.52 92.256 267.8 91.444 267.8 90.492C267.8 89.036 267.268 88 266.232 87.384C265.196 86.768 263.712 86.348 261.78 86.124C260.856 86.04 260.212 85.956 259.82 85.872C259.428 85.816 259.092 85.676 258.868 85.508C258.616 85.34 258.504 85.088 258.504 84.752C258.504 84.304 258.728 83.912 259.176 83.632C259.624 83.352 260.24 83.212 260.996 83.212C261.78 83.212 262.452 83.408 262.956 83.744C263.46 84.08 263.768 84.528 263.824 85.06H267.576C267.464 83.604 266.82 82.484 265.616 81.644C264.412 80.832 262.844 80.412 260.884 80.384C259.652 80.384 258.588 80.58 257.664 80.972C256.712 81.364 255.984 81.924 255.48 82.652C254.976 83.38 254.724 84.192 254.724 85.116C254.724 86.068 254.976 86.796 255.48 87.356C255.984 87.916 256.656 88.336 257.496 88.588C258.336 88.868 259.372 89.064 260.66 89.232C261.584 89.344 262.256 89.456 262.676 89.54C263.068 89.624 263.404 89.764 263.628 89.932C263.852 90.128 263.964 90.408 263.964 90.772C263.964 91.276 263.712 91.668 263.236 91.948C262.732 92.228 262.088 92.34 261.248 92.34C260.352 92.34 259.652 92.144 259.092 91.752C258.532 91.36 258.224 90.856 258.168 90.212ZM270.993 83.94V90.884C270.993 93.628 272.365 95 275.109 95H278.385V91.668H276.341C275.837 91.668 275.473 91.556 275.249 91.332C275.025 91.108 274.941 90.744 274.941 90.24V83.94H278.217V80.608H274.941V76.576H270.993V80.608H268.613V83.94H270.993ZM287.919 83.94V90.884C287.919 93.628 289.291 95 292.035 95H295.311V91.668H293.267C292.763 91.668 292.399 91.556 292.175 91.332C291.951 91.108 291.867 90.744 291.867 90.24V83.94H295.143V80.608H291.867V76.576H287.919V80.608H285.539V83.94H287.919ZM309.352 82.008C308.26 80.972 306.86 80.44 305.18 80.44C303.388 80.44 301.988 81.084 300.924 82.372V75.4H296.976V95H300.924V87.608C300.924 86.376 301.204 85.424 301.764 84.724C302.324 84.052 303.136 83.688 304.144 83.688C305.096 83.688 305.824 84.024 306.328 84.64C306.804 85.256 307.056 86.18 307.056 87.356V95H311.004V87.188C311.004 84.78 310.444 83.072 309.352 82.008ZM317.103 75.26C316.655 74.84 316.123 74.616 315.479 74.616C314.807 74.616 314.275 74.84 313.827 75.26C313.379 75.68 313.183 76.212 313.183 76.828C313.183 77.472 313.379 78.004 313.827 78.424C314.275 78.872 314.807 79.068 315.479 79.068C316.123 79.068 316.655 78.872 317.103 78.424C317.523 78.004 317.747 77.472 317.747 76.828C317.747 76.212 317.523 75.68 317.103 75.26ZM313.491 80.608V95H317.439V80.608H313.491ZM332.594 82.008C331.502 80.972 330.13 80.44 328.45 80.44C327.386 80.44 326.518 80.636 325.818 80.972C325.09 81.308 324.502 81.784 323.998 82.4L323.634 80.608H320.19V95H324.138V87.636C324.138 86.404 324.418 85.424 324.978 84.724C325.538 84.052 326.322 83.688 327.358 83.688C329.29 83.688 330.27 84.948 330.27 87.412V95H334.218V87.188C334.218 84.78 333.658 83.072 332.594 82.008ZM351.098 80.608H347.626L347.29 82.596C346.17 81.14 344.686 80.412 342.81 80.412C341.522 80.412 340.374 80.72 339.366 81.308C338.358 81.924 337.546 82.764 336.986 83.856C336.426 84.976 336.146 86.236 336.146 87.664C336.146 89.12 336.426 90.408 336.986 91.5C337.546 92.592 338.358 93.432 339.366 94.02C340.374 94.636 341.494 94.916 342.782 94.916C344.686 94.916 346.17 94.272 347.234 92.928V94.44C347.234 95.56 346.926 96.372 346.31 96.932C345.694 97.492 344.826 97.772 343.706 97.772C342.81 97.772 342.082 97.604 341.522 97.212C340.962 96.848 340.598 96.316 340.43 95.616H336.454C336.538 97.268 337.21 98.528 338.47 99.424C339.702 100.32 341.354 100.768 343.398 100.768C346.03 100.768 347.962 100.208 349.222 99.088C350.454 97.968 351.098 96.484 351.098 94.58V80.608ZM346.254 90.632C345.61 91.388 344.77 91.752 343.706 91.752C342.642 91.752 341.774 91.388 341.13 90.632C340.486 89.904 340.178 88.924 340.178 87.692C340.178 86.488 340.486 85.508 341.13 84.752C341.774 83.996 342.642 83.604 343.706 83.604C344.77 83.604 345.61 83.996 346.254 84.752C346.87 85.536 347.206 86.516 347.206 87.72C347.206 88.924 346.87 89.904 346.254 90.632ZM357.071 90.212H353.319C353.375 91.752 354.047 92.956 355.307 93.852C356.539 94.748 358.163 95.168 360.179 95.168C361.467 95.168 362.587 95 363.567 94.608C364.547 94.216 365.303 93.684 365.863 92.956C366.423 92.256 366.703 91.444 366.703 90.492C366.703 89.036 366.171 88 365.135 87.384C364.099 86.768 362.615 86.348 360.683 86.124C359.759 86.04 359.115 85.956 358.723 85.872C358.331 85.816 357.995 85.676 357.771 85.508C357.519 85.34 357.407 85.088 357.407 84.752C357.407 84.304 357.631 83.912 358.079 83.632C358.527 83.352 359.143 83.212 359.899 83.212C360.683 83.212 361.355 83.408 361.859 83.744C362.363 84.08 362.671 84.528 362.727 85.06H366.479C366.367 83.604 365.723 82.484 364.519 81.644C363.315 80.832 361.747 80.412 359.787 80.384C358.555 80.384 357.491 80.58 356.567 80.972C355.615 81.364 354.887 81.924 354.383 82.652C353.879 83.38 353.627 84.192 353.627 85.116C353.627 86.068 353.879 86.796 354.383 87.356C354.887 87.916 355.559 88.336 356.399 88.588C357.239 88.868 358.275 89.064 359.563 89.232C360.487 89.344 361.159 89.456 361.579 89.54C361.971 89.624 362.307 89.764 362.531 89.932C362.755 90.128 362.867 90.408 362.867 90.772C362.867 91.276 362.615 91.668 362.139 91.948C361.635 92.228 360.991 92.34 360.151 92.34C359.255 92.34 358.555 92.144 357.995 91.752C357.435 91.36 357.127 90.856 357.071 90.212ZM386.305 78.424C386.725 78.872 387.257 79.068 387.929 79.068C388.573 79.068 389.105 78.872 389.553 78.424C390.001 78.004 390.225 77.472 390.225 76.828C390.225 76.212 390.001 75.68 389.553 75.26C389.105 74.84 388.573 74.616 387.929 74.616C387.257 74.616 386.725 74.84 386.305 75.26C385.857 75.68 385.661 76.212 385.661 76.828C385.661 77.472 385.857 78.004 386.305 78.424ZM389.889 95V80.608H380.789V79.936C380.789 79.544 380.873 79.236 381.069 79.04C381.237 78.872 381.545 78.76 381.965 78.76H383.953V75.4H381.181C379.725 75.4 378.661 75.764 377.933 76.436C377.205 77.108 376.841 78.088 376.841 79.348V80.608H374.461V83.94H376.841V95H380.789V83.94H385.941V95H389.889ZM401.388 80.608H400.716C399.652 80.608 398.784 80.804 398.168 81.168C397.524 81.532 396.992 82.064 396.572 82.764L396.208 80.608H392.624V95H396.572V87.944C396.572 86.796 396.824 85.872 397.356 85.2C397.86 84.528 398.7 84.192 399.82 84.192H401.388V80.608ZM406.098 90.212H402.346C402.402 91.752 403.074 92.956 404.334 93.852C405.566 94.748 407.19 95.168 409.206 95.168C410.494 95.168 411.614 95 412.594 94.608C413.574 94.216 414.33 93.684 414.89 92.956C415.45 92.256 415.73 91.444 415.73 90.492C415.73 89.036 415.198 88 414.162 87.384C413.126 86.768 411.642 86.348 409.71 86.124C408.786 86.04 408.142 85.956 407.75 85.872C407.358 85.816 407.022 85.676 406.798 85.508C406.546 85.34 406.434 85.088 406.434 84.752C406.434 84.304 406.658 83.912 407.106 83.632C407.554 83.352 408.17 83.212 408.926 83.212C409.71 83.212 410.382 83.408 410.886 83.744C411.39 84.08 411.698 84.528 411.754 85.06H415.506C415.394 83.604 414.75 82.484 413.546 81.644C412.342 80.832 410.774 80.412 408.814 80.384C407.582 80.384 406.518 80.58 405.594 80.972C404.642 81.364 403.914 81.924 403.41 82.652C402.906 83.38 402.654 84.192 402.654 85.116C402.654 86.068 402.906 86.796 403.41 87.356C403.914 87.916 404.586 88.336 405.426 88.588C406.266 88.868 407.302 89.064 408.59 89.232C409.514 89.344 410.186 89.456 410.606 89.54C410.998 89.624 411.334 89.764 411.558 89.932C411.782 90.128 411.894 90.408 411.894 90.772C411.894 91.276 411.642 91.668 411.166 91.948C410.662 92.228 410.018 92.34 409.178 92.34C408.282 92.34 407.582 92.144 407.022 91.752C406.462 91.36 406.154 90.856 406.098 90.212ZM418.923 83.94V90.884C418.923 93.628 420.295 95 423.039 95H426.315V91.668H424.271C423.767 91.668 423.403 91.556 423.179 91.332C422.955 91.108 422.871 90.744 422.871 90.24V83.94H426.147V80.608H422.871V76.576H418.923V80.608H416.543V83.94H418.923Z" fill="#292A29"/>
<path d="M163.374 126.4L167.046 139H168.918L171.78 129.01L174.66 139H176.532L180.222 126.4H178.602L175.632 136.984L172.644 126.4H171.06L167.964 136.984L165.012 126.4H163.374ZM181.145 131.944C180.785 132.664 180.605 133.474 180.605 134.41C180.605 135.346 180.785 136.156 181.163 136.876C181.541 137.596 182.081 138.136 182.765 138.532C183.449 138.928 184.241 139.108 185.159 139.108C186.203 139.108 187.085 138.82 187.805 138.226C188.525 137.632 188.975 136.858 189.155 135.922H187.661C187.499 136.516 187.193 136.984 186.725 137.308C186.257 137.632 185.699 137.794 185.051 137.794C184.187 137.794 183.503 137.524 182.981 136.984C182.441 136.444 182.171 135.724 182.153 134.824V134.698H189.281C189.299 134.41 189.317 134.212 189.317 134.068C189.281 133.186 189.083 132.412 188.723 131.746C188.345 131.098 187.841 130.594 187.193 130.234C186.545 129.892 185.789 129.712 184.961 129.712C184.097 129.712 183.341 129.91 182.693 130.306C182.027 130.702 181.505 131.242 181.145 131.944ZM187.787 133.474H182.243C182.315 132.754 182.603 132.16 183.143 131.692C183.665 131.242 184.277 131.008 184.979 131.008C185.753 131.008 186.401 131.224 186.905 131.656C187.409 132.088 187.715 132.7 187.787 133.474ZM194.848 129.82L197.818 139.018L199.438 139L201.742 132.178L203.956 139H205.576L208.636 129.82H207.142L204.748 137.29L202.462 129.82H201.094L198.682 137.29L196.396 129.82H194.848ZM218.027 137.65H217.577C217.163 137.65 216.965 137.434 216.965 136.984V133.024C216.965 131.962 216.641 131.152 215.993 130.576C215.345 130 214.445 129.712 213.275 129.712C212.159 129.712 211.259 129.964 210.575 130.468C209.891 130.972 209.495 131.674 209.387 132.574H210.863C210.953 132.106 211.205 131.746 211.619 131.458C212.033 131.17 212.555 131.026 213.203 131.026C213.923 131.026 214.481 131.206 214.877 131.53C215.273 131.872 215.489 132.34 215.489 132.934V133.564H212.789C211.583 133.564 210.665 133.816 210.035 134.302C209.405 134.806 209.099 135.508 209.099 136.426C209.099 137.254 209.405 137.92 210.017 138.388C210.629 138.874 211.457 139.108 212.483 139.108C213.815 139.108 214.841 138.604 215.561 137.578C215.561 138.046 215.705 138.406 215.957 138.64C216.209 138.892 216.623 139 217.217 139H218.027V137.65ZM215.489 134.806V135.256C215.489 136.048 215.219 136.678 214.715 137.146C214.193 137.614 213.491 137.848 212.591 137.848C211.979 137.848 211.493 137.722 211.133 137.434C210.773 137.164 210.593 136.804 210.593 136.336C210.593 135.328 211.277 134.806 212.645 134.806H215.489ZM226.343 130.72C225.659 130.054 224.777 129.712 223.661 129.712C222.329 129.712 221.321 130.162 220.637 131.062L220.439 129.82H219.161V139H220.637V134.41C220.637 133.384 220.871 132.574 221.375 131.962C221.861 131.368 222.545 131.062 223.409 131.062C224.201 131.062 224.813 131.314 225.245 131.818C225.677 132.322 225.893 133.042 225.893 133.978V139H227.369V133.888C227.369 132.448 227.027 131.404 226.343 130.72ZM229.863 131.17V136.606C229.863 137.434 230.043 138.046 230.403 138.424C230.763 138.82 231.393 139 232.257 139H233.949V137.65H232.347C231.969 137.65 231.699 137.578 231.555 137.416C231.411 137.254 231.339 136.984 231.339 136.588V131.17H233.661V129.82H231.339V127.246H229.863V129.82H228.207V131.17H229.863ZM240.322 131.17V136.606C240.322 137.434 240.502 138.046 240.862 138.424C241.222 138.82 241.852 139 242.716 139H244.408V137.65H242.806C242.428 137.65 242.158 137.578 242.014 137.416C241.87 137.254 241.798 136.984 241.798 136.588V131.17H244.12V129.82H241.798V127.246H240.322V129.82H238.666V131.17H240.322ZM247.084 138.514C247.768 138.91 248.56 139.108 249.46 139.108C250.342 139.108 251.134 138.91 251.818 138.514C252.502 138.118 253.042 137.578 253.438 136.858C253.816 136.156 254.014 135.346 254.014 134.41C254.014 133.492 253.816 132.682 253.438 131.962C253.042 131.26 252.502 130.702 251.818 130.306C251.134 129.91 250.342 129.712 249.46 129.712C248.56 129.712 247.768 129.91 247.084 130.306C246.4 130.702 245.86 131.26 245.482 131.962C245.086 132.682 244.906 133.492 244.906 134.41C244.906 135.346 245.086 136.156 245.482 136.858C245.86 137.578 246.4 138.118 247.084 138.514ZM251.044 137.362C250.576 137.65 250.054 137.794 249.46 137.794C248.848 137.794 248.326 137.65 247.858 137.362C247.39 137.074 247.048 136.678 246.796 136.156C246.544 135.652 246.418 135.058 246.418 134.41C246.418 133.762 246.544 133.186 246.796 132.664C247.048 132.16 247.39 131.746 247.858 131.458C248.326 131.17 248.848 131.026 249.46 131.026C250.054 131.026 250.576 131.17 251.044 131.458C251.512 131.746 251.872 132.16 252.124 132.664C252.376 133.186 252.502 133.762 252.502 134.41C252.502 135.058 252.376 135.652 252.124 136.156C251.872 136.678 251.512 137.074 251.044 137.362ZM261.569 135.976H260.093C260.093 136.966 260.471 137.74 261.191 138.28C261.911 138.838 262.883 139.108 264.089 139.108C264.755 139.108 265.367 139 265.925 138.766C266.465 138.55 266.915 138.226 267.239 137.794C267.563 137.38 267.725 136.894 267.725 136.336C267.725 135.706 267.563 135.202 267.239 134.824C266.915 134.464 266.501 134.194 265.979 134.014C265.457 133.852 264.791 133.726 263.999 133.618C263.423 133.546 262.991 133.492 262.703 133.42C262.415 133.366 262.199 133.258 262.019 133.078C261.839 132.916 261.749 132.682 261.749 132.358C261.749 131.944 261.929 131.602 262.325 131.35C262.703 131.098 263.207 130.954 263.837 130.954C264.449 130.954 264.953 131.116 265.367 131.422C265.763 131.746 265.997 132.142 266.069 132.61H267.545C267.473 131.674 267.095 130.954 266.411 130.45C265.727 129.946 264.863 129.694 263.783 129.694C263.117 129.694 262.523 129.82 262.001 130.054C261.461 130.288 261.047 130.612 260.741 131.026C260.435 131.458 260.291 131.926 260.291 132.466C260.291 133.078 260.435 133.546 260.759 133.888C261.065 134.23 261.479 134.482 261.983 134.626C262.487 134.788 263.135 134.914 263.927 135.004C264.485 135.076 264.917 135.148 265.223 135.22C265.529 135.292 265.781 135.436 265.979 135.616C266.159 135.814 266.267 136.084 266.267 136.444C266.267 136.876 266.051 137.218 265.655 137.47C265.259 137.722 264.737 137.848 264.089 137.848C263.351 137.848 262.757 137.686 262.289 137.326C261.821 136.984 261.587 136.534 261.569 135.976ZM269.616 131.944C269.256 132.664 269.076 133.474 269.076 134.41C269.076 135.346 269.256 136.156 269.634 136.876C270.012 137.596 270.552 138.136 271.236 138.532C271.92 138.928 272.712 139.108 273.63 139.108C274.674 139.108 275.556 138.82 276.276 138.226C276.996 137.632 277.446 136.858 277.626 135.922H276.132C275.97 136.516 275.664 136.984 275.196 137.308C274.728 137.632 274.17 137.794 273.522 137.794C272.658 137.794 271.974 137.524 271.452 136.984C270.912 136.444 270.642 135.724 270.624 134.824V134.698H277.752C277.77 134.41 277.788 134.212 277.788 134.068C277.752 133.186 277.554 132.412 277.194 131.746C276.816 131.098 276.312 130.594 275.664 130.234C275.016 129.892 274.26 129.712 273.432 129.712C272.568 129.712 271.812 129.91 271.164 130.306C270.498 130.702 269.976 131.242 269.616 131.944ZM276.258 133.474H270.714C270.786 132.754 271.074 132.16 271.614 131.692C272.136 131.242 272.748 131.008 273.45 131.008C274.224 131.008 274.872 131.224 275.376 131.656C275.88 132.088 276.186 132.7 276.258 133.474ZM284.134 129.82H283.72C282.964 129.82 282.388 129.946 281.974 130.198C281.542 130.45 281.2 130.792 280.948 131.206L280.75 129.82H279.472V139H280.948V134.32C280.948 133.456 281.128 132.736 281.506 132.142C281.884 131.566 282.514 131.26 283.396 131.26H284.134V129.82ZM284.653 129.82L288.091 139H289.873L293.311 129.82H291.763L289.009 137.326L286.237 129.82H284.653ZM294.278 131.944C293.918 132.664 293.738 133.474 293.738 134.41C293.738 135.346 293.918 136.156 294.296 136.876C294.674 137.596 295.214 138.136 295.898 138.532C296.582 138.928 297.374 139.108 298.292 139.108C299.336 139.108 300.218 138.82 300.938 138.226C301.658 137.632 302.108 136.858 302.288 135.922H300.794C300.632 136.516 300.326 136.984 299.858 137.308C299.39 137.632 298.832 137.794 298.184 137.794C297.32 137.794 296.636 137.524 296.114 136.984C295.574 136.444 295.304 135.724 295.286 134.824V134.698H302.414C302.432 134.41 302.45 134.212 302.45 134.068C302.414 133.186 302.216 132.412 301.856 131.746C301.478 131.098 300.974 130.594 300.326 130.234C299.678 129.892 298.922 129.712 298.094 129.712C297.23 129.712 296.474 129.91 295.826 130.306C295.16 130.702 294.638 131.242 294.278 131.944ZM300.92 133.474H295.376C295.448 132.754 295.736 132.16 296.276 131.692C296.798 131.242 297.41 131.008 298.112 131.008C298.886 131.008 299.534 131.224 300.038 131.656C300.542 132.088 300.848 132.7 300.92 133.474ZM309.493 129.82H307.927L311.527 139.072L311.059 140.17C310.915 140.494 310.807 140.728 310.717 140.872C310.627 141.016 310.519 141.106 310.375 141.16C310.231 141.232 310.015 141.25 309.727 141.25H308.413V142.6H310.177C310.591 142.6 310.933 142.546 311.185 142.402C311.437 142.276 311.635 142.078 311.815 141.79C311.977 141.52 312.175 141.106 312.391 140.548L316.621 129.82H315.055L312.319 137.308L309.493 129.82ZM319.224 138.514C319.908 138.91 320.7 139.108 321.6 139.108C322.482 139.108 323.274 138.91 323.958 138.514C324.642 138.118 325.182 137.578 325.578 136.858C325.956 136.156 326.154 135.346 326.154 134.41C326.154 133.492 325.956 132.682 325.578 131.962C325.182 131.26 324.642 130.702 323.958 130.306C323.274 129.91 322.482 129.712 321.6 129.712C320.7 129.712 319.908 129.91 319.224 130.306C318.54 130.702 318 131.26 317.622 131.962C317.226 132.682 317.046 133.492 317.046 134.41C317.046 135.346 317.226 136.156 317.622 136.858C318 137.578 318.54 138.118 319.224 138.514ZM323.184 137.362C322.716 137.65 322.194 137.794 321.6 137.794C320.988 137.794 320.466 137.65 319.998 137.362C319.53 137.074 319.188 136.678 318.936 136.156C318.684 135.652 318.558 135.058 318.558 134.41C318.558 133.762 318.684 133.186 318.936 132.664C319.188 132.16 319.53 131.746 319.998 131.458C320.466 131.17 320.988 131.026 321.6 131.026C322.194 131.026 322.716 131.17 323.184 131.458C323.652 131.746 324.012 132.16 324.264 132.664C324.516 133.186 324.642 133.762 324.642 134.41C324.642 135.058 324.516 135.652 324.264 136.156C324.012 136.678 323.652 137.074 323.184 137.362ZM335.749 129.82H334.273V134.41C334.273 135.454 334.021 136.264 333.553 136.858C333.085 137.47 332.419 137.758 331.591 137.758C330.817 137.758 330.223 137.524 329.809 137.02C329.395 136.516 329.197 135.796 329.197 134.842V129.82H327.721V134.932C327.721 136.372 328.045 137.434 328.711 138.1C329.359 138.784 330.241 139.108 331.339 139.108C332.599 139.108 333.571 138.676 334.273 137.776L334.471 139H335.749V129.82ZM349.366 130.27C348.7 129.91 347.944 129.712 347.098 129.712C345.766 129.712 344.704 130.252 343.948 131.296V126.4H342.472V139H343.75L343.948 137.596C344.236 138.064 344.65 138.442 345.19 138.712C345.712 138.982 346.342 139.108 347.098 139.108C347.926 139.108 348.682 138.91 349.366 138.514C350.032 138.118 350.554 137.578 350.932 136.858C351.31 136.156 351.508 135.346 351.508 134.41C351.508 133.438 351.31 132.61 350.932 131.89C350.554 131.188 350.032 130.648 349.366 130.27ZM349.15 136.858C348.592 137.488 347.854 137.794 346.954 137.794C346.36 137.794 345.838 137.65 345.37 137.362C344.902 137.074 344.56 136.678 344.308 136.156C344.056 135.634 343.93 135.04 343.93 134.374C343.93 133.726 344.056 133.15 344.308 132.646C344.56 132.142 344.902 131.746 345.37 131.458C345.838 131.17 346.36 131.026 346.954 131.026C347.854 131.026 348.592 131.35 349.15 131.98C349.708 132.61 349.996 133.42 349.996 134.41C349.996 135.418 349.708 136.228 349.15 136.858ZM353.411 131.944C353.051 132.664 352.871 133.474 352.871 134.41C352.871 135.346 353.051 136.156 353.429 136.876C353.807 137.596 354.347 138.136 355.031 138.532C355.715 138.928 356.507 139.108 357.425 139.108C358.469 139.108 359.351 138.82 360.071 138.226C360.791 137.632 361.241 136.858 361.421 135.922H359.927C359.765 136.516 359.459 136.984 358.991 137.308C358.523 137.632 357.965 137.794 357.317 137.794C356.453 137.794 355.769 137.524 355.247 136.984C354.707 136.444 354.437 135.724 354.419 134.824V134.698H361.547C361.565 134.41 361.583 134.212 361.583 134.068C361.547 133.186 361.349 132.412 360.989 131.746C360.611 131.098 360.107 130.594 359.459 130.234C358.811 129.892 358.055 129.712 357.227 129.712C356.363 129.712 355.607 129.91 354.959 130.306C354.293 130.702 353.771 131.242 353.411 131.944ZM360.053 133.474H354.509C354.581 132.754 354.869 132.16 355.409 131.692C355.931 131.242 356.543 131.008 357.245 131.008C358.019 131.008 358.667 131.224 359.171 131.656C359.675 132.088 359.981 132.7 360.053 133.474ZM363.773 131.17V136.606C363.773 137.434 363.953 138.046 364.313 138.424C364.673 138.82 365.303 139 366.167 139H367.859V137.65H366.257C365.879 137.65 365.609 137.578 365.465 137.416C365.321 137.254 365.249 136.984 365.249 136.588V131.17H367.571V129.82H365.249V127.246H363.773V129.82H362.117V131.17H363.773ZM368.909 127.246V136.606C368.909 137.434 369.089 138.046 369.449 138.424C369.809 138.82 370.439 139 371.303 139H372.995V137.65H371.393C371.015 137.65 370.745 137.578 370.601 137.416C370.457 137.254 370.385 136.984 370.385 136.588V131.17H372.707V129.82H370.385V127.246H368.909ZM374.03 131.944C373.67 132.664 373.49 133.474 373.49 134.41C373.49 135.346 373.67 136.156 374.048 136.876C374.426 137.596 374.966 138.136 375.65 138.532C376.334 138.928 377.126 139.108 378.044 139.108C379.088 139.108 379.97 138.82 380.69 138.226C381.41 137.632 381.86 136.858 382.04 135.922H380.546C380.384 136.516 380.078 136.984 379.61 137.308C379.142 137.632 378.584 137.794 377.936 137.794C377.072 137.794 376.388 137.524 375.866 136.984C375.326 136.444 375.056 135.724 375.038 134.824V134.698H382.166C382.184 134.41 382.202 134.212 382.202 134.068C382.166 133.186 381.968 132.412 381.608 131.746C381.23 131.098 380.726 130.594 380.078 130.234C379.43 129.892 378.674 129.712 377.846 129.712C376.982 129.712 376.226 129.91 375.578 130.306C374.912 130.702 374.39 131.242 374.03 131.944ZM380.672 133.474H375.128C375.2 132.754 375.488 132.16 376.028 131.692C376.55 131.242 377.162 131.008 377.864 131.008C378.638 131.008 379.286 131.224 379.79 131.656C380.294 132.088 380.6 132.7 380.672 133.474ZM388.548 129.82H388.134C387.378 129.82 386.802 129.946 386.388 130.198C385.956 130.45 385.614 130.792 385.362 131.206L385.164 129.82H383.886V139H385.362V134.32C385.362 133.456 385.542 132.736 385.92 132.142C386.298 131.566 386.928 131.26 387.81 131.26H388.548V129.82ZM389.021 137.38C388.823 137.56 388.733 137.812 388.733 138.1C388.733 138.406 388.823 138.658 389.021 138.838C389.201 139.018 389.453 139.108 389.759 139.108C390.047 139.108 390.299 139.018 390.497 138.838C390.677 138.658 390.785 138.406 390.785 138.1C390.785 137.812 390.677 137.56 390.497 137.38C390.299 137.2 390.047 137.092 389.759 137.092C389.453 137.092 389.201 137.2 389.021 137.38ZM396.775 126.4V127.84H400.861V139H402.427V127.84H406.513V126.4H396.775ZM406.567 131.944C406.207 132.664 406.027 133.474 406.027 134.41C406.027 135.346 406.207 136.156 406.585 136.876C406.963 137.596 407.503 138.136 408.187 138.532C408.871 138.928 409.663 139.108 410.581 139.108C411.625 139.108 412.507 138.82 413.227 138.226C413.947 137.632 414.397 136.858 414.577 135.922H413.083C412.921 136.516 412.615 136.984 412.147 137.308C411.679 137.632 411.121 137.794 410.473 137.794C409.609 137.794 408.925 137.524 408.403 136.984C407.863 136.444 407.593 135.724 407.575 134.824V134.698H414.703C414.721 134.41 414.739 134.212 414.739 134.068C414.703 133.186 414.505 132.412 414.145 131.746C413.767 131.098 413.263 130.594 412.615 130.234C411.967 129.892 411.211 129.712 410.383 129.712C409.519 129.712 408.763 129.91 408.115 130.306C407.449 130.702 406.927 131.242 406.567 131.944ZM413.209 133.474H407.665C407.737 132.754 408.025 132.16 408.565 131.692C409.087 131.242 409.699 131.008 410.401 131.008C411.175 131.008 411.823 131.224 412.327 131.656C412.831 132.088 413.137 132.7 413.209 133.474ZM416.423 126.4V139H417.899V126.4H416.423ZM419.921 126.4V139H421.397V126.4H419.921ZM436.032 129.82H434.556V134.41C434.556 135.454 434.304 136.264 433.836 136.858C433.368 137.47 432.702 137.758 431.874 137.758C431.1 137.758 430.506 137.524 430.092 137.02C429.678 136.516 429.48 135.796 429.48 134.842V129.82H428.004V134.932C428.004 136.372 428.328 137.434 428.994 138.1C429.642 138.784 430.524 139.108 431.622 139.108C432.882 139.108 433.854 138.676 434.556 137.776L434.754 139H436.032V129.82ZM439.196 135.976H437.72C437.72 136.966 438.098 137.74 438.818 138.28C439.538 138.838 440.51 139.108 441.716 139.108C442.382 139.108 442.994 139 443.552 138.766C444.092 138.55 444.542 138.226 444.866 137.794C445.19 137.38 445.352 136.894 445.352 136.336C445.352 135.706 445.19 135.202 444.866 134.824C444.542 134.464 444.128 134.194 443.606 134.014C443.084 133.852 442.418 133.726 441.626 133.618C441.05 133.546 440.618 133.492 440.33 133.42C440.042 133.366 439.826 133.258 439.646 133.078C439.466 132.916 439.376 132.682 439.376 132.358C439.376 131.944 439.556 131.602 439.952 131.35C440.33 131.098 440.834 130.954 441.464 130.954C442.076 130.954 442.58 131.116 442.994 131.422C443.39 131.746 443.624 132.142 443.696 132.61H445.172C445.1 131.674 444.722 130.954 444.038 130.45C443.354 129.946 442.49 129.694 441.41 129.694C440.744 129.694 440.15 129.82 439.628 130.054C439.088 130.288 438.674 130.612 438.368 131.026C438.062 131.458 437.918 131.926 437.918 132.466C437.918 133.078 438.062 133.546 438.386 133.888C438.692 134.23 439.106 134.482 439.61 134.626C440.114 134.788 440.762 134.914 441.554 135.004C442.112 135.076 442.544 135.148 442.85 135.22C443.156 135.292 443.408 135.436 443.606 135.616C443.786 135.814 443.894 136.084 443.894 136.444C443.894 136.876 443.678 137.218 443.282 137.47C442.886 137.722 442.364 137.848 441.716 137.848C440.978 137.848 440.384 137.686 439.916 137.326C439.448 136.984 439.214 136.534 439.196 135.976ZM460.323 137.65H459.873C459.459 137.65 459.261 137.434 459.261 136.984V133.024C459.261 131.962 458.937 131.152 458.289 130.576C457.641 130 456.741 129.712 455.571 129.712C454.455 129.712 453.555 129.964 452.871 130.468C452.187 130.972 451.791 131.674 451.683 132.574H453.159C453.249 132.106 453.501 131.746 453.915 131.458C454.329 131.17 454.851 131.026 455.499 131.026C456.219 131.026 456.777 131.206 457.173 131.53C457.569 131.872 457.785 132.34 457.785 132.934V133.564H455.085C453.879 133.564 452.961 133.816 452.331 134.302C451.701 134.806 451.395 135.508 451.395 136.426C451.395 137.254 451.701 137.92 452.313 138.388C452.925 138.874 453.753 139.108 454.779 139.108C456.111 139.108 457.137 138.604 457.857 137.578C457.857 138.046 458.001 138.406 458.253 138.64C458.505 138.892 458.919 139 459.513 139H460.323V137.65ZM457.785 134.806V135.256C457.785 136.048 457.515 136.678 457.011 137.146C456.489 137.614 455.787 137.848 454.887 137.848C454.275 137.848 453.789 137.722 453.429 137.434C453.069 137.164 452.889 136.804 452.889 136.336C452.889 135.328 453.573 134.806 454.941 134.806H457.785ZM473.063 130.27C472.397 129.91 471.641 129.712 470.795 129.712C469.463 129.712 468.401 130.252 467.645 131.296V126.4H466.169V139H467.447L467.645 137.596C467.933 138.064 468.347 138.442 468.887 138.712C469.409 138.982 470.039 139.108 470.795 139.108C471.623 139.108 472.379 138.91 473.063 138.514C473.729 138.118 474.251 137.578 474.629 136.858C475.007 136.156 475.205 135.346 475.205 134.41C475.205 133.438 475.007 132.61 474.629 131.89C474.251 131.188 473.729 130.648 473.063 130.27ZM472.847 136.858C472.289 137.488 471.551 137.794 470.651 137.794C470.057 137.794 469.535 137.65 469.067 137.362C468.599 137.074 468.257 136.678 468.005 136.156C467.753 135.634 467.627 135.04 467.627 134.374C467.627 133.726 467.753 133.15 468.005 132.646C468.257 132.142 468.599 131.746 469.067 131.458C469.535 131.17 470.057 131.026 470.651 131.026C471.551 131.026 472.289 131.35 472.847 131.98C473.405 132.61 473.693 133.42 473.693 134.41C473.693 135.418 473.405 136.228 472.847 136.858ZM478.314 126.544C478.134 126.364 477.9 126.274 477.63 126.274C477.342 126.274 477.126 126.364 476.946 126.544C476.766 126.724 476.676 126.958 476.676 127.228C476.676 127.516 476.766 127.732 476.946 127.912C477.126 128.092 477.342 128.182 477.63 128.182C477.9 128.182 478.134 128.092 478.314 127.912C478.494 127.732 478.584 127.516 478.584 127.228C478.584 126.958 478.494 126.724 478.314 126.544ZM476.892 129.82V139H478.368V129.82H476.892ZM481.002 131.17V136.606C481.002 137.434 481.182 138.046 481.542 138.424C481.902 138.82 482.532 139 483.396 139H485.088V137.65H483.486C483.108 137.65 482.838 137.578 482.694 137.416C482.55 137.254 482.478 136.984 482.478 136.588V131.17H484.8V129.82H482.478V127.246H481.002V129.82H479.346V131.17H481.002ZM226.403 161.65H225.953C225.539 161.65 225.341 161.434 225.341 160.984V157.024C225.341 155.962 225.017 155.152 224.369 154.576C223.721 154 222.821 153.712 221.651 153.712C220.535 153.712 219.635 153.964 218.951 154.468C218.267 154.972 217.871 155.674 217.763 156.574H219.239C219.329 156.106 219.581 155.746 219.995 155.458C220.409 155.17 220.931 155.026 221.579 155.026C222.299 155.026 222.857 155.206 223.253 155.53C223.649 155.872 223.865 156.34 223.865 156.934V157.564H221.165C219.959 157.564 219.041 157.816 218.411 158.302C217.781 158.806 217.475 159.508 217.475 160.426C217.475 161.254 217.781 161.92 218.393 162.388C219.005 162.874 219.833 163.108 220.859 163.108C222.191 163.108 223.217 162.604 223.937 161.578C223.937 162.046 224.081 162.406 224.333 162.64C224.585 162.892 224.999 163 225.593 163H226.403V161.65ZM223.865 158.806V159.256C223.865 160.048 223.595 160.678 223.091 161.146C222.569 161.614 221.867 161.848 220.967 161.848C220.355 161.848 219.869 161.722 219.509 161.434C219.149 161.164 218.969 160.804 218.969 160.336C218.969 159.328 219.653 158.806 221.021 158.806H223.865ZM234.431 154.27C233.765 153.91 233.009 153.712 232.163 153.712C230.831 153.712 229.769 154.252 229.013 155.296V150.4H227.537V163H228.815L229.013 161.596C229.301 162.064 229.715 162.442 230.255 162.712C230.777 162.982 231.407 163.108 232.163 163.108C232.991 163.108 233.747 162.91 234.431 162.514C235.097 162.118 235.619 161.578 235.997 160.858C236.375 160.156 236.573 159.346 236.573 158.41C236.573 157.438 236.375 156.61 235.997 155.89C235.619 155.188 235.097 154.648 234.431 154.27ZM234.215 160.858C233.657 161.488 232.919 161.794 232.019 161.794C231.425 161.794 230.903 161.65 230.435 161.362C229.967 161.074 229.625 160.678 229.373 160.156C229.121 159.634 228.995 159.04 228.995 158.374C228.995 157.726 229.121 157.15 229.373 156.646C229.625 156.142 229.967 155.746 230.435 155.458C230.903 155.17 231.425 155.026 232.019 155.026C232.919 155.026 233.657 155.35 234.215 155.98C234.773 156.61 235.061 157.42 235.061 158.41C235.061 159.418 234.773 160.228 234.215 160.858ZM240.114 162.514C240.798 162.91 241.59 163.108 242.49 163.108C243.372 163.108 244.164 162.91 244.848 162.514C245.532 162.118 246.072 161.578 246.468 160.858C246.846 160.156 247.044 159.346 247.044 158.41C247.044 157.492 246.846 156.682 246.468 155.962C246.072 155.26 245.532 154.702 244.848 154.306C244.164 153.91 243.372 153.712 242.49 153.712C241.59 153.712 240.798 153.91 240.114 154.306C239.43 154.702 238.89 155.26 238.512 155.962C238.116 156.682 237.936 157.492 237.936 158.41C237.936 159.346 238.116 160.156 238.512 160.858C238.89 161.578 239.43 162.118 240.114 162.514ZM244.074 161.362C243.606 161.65 243.084 161.794 242.49 161.794C241.878 161.794 241.356 161.65 240.888 161.362C240.42 161.074 240.078 160.678 239.826 160.156C239.574 159.652 239.448 159.058 239.448 158.41C239.448 157.762 239.574 157.186 239.826 156.664C240.078 156.16 240.42 155.746 240.888 155.458C241.356 155.17 241.878 155.026 242.49 155.026C243.084 155.026 243.606 155.17 244.074 155.458C244.542 155.746 244.902 156.16 245.154 156.664C245.406 157.186 245.532 157.762 245.532 158.41C245.532 159.058 245.406 159.652 245.154 160.156C244.902 160.678 244.542 161.074 244.074 161.362ZM256.639 153.82H255.163V158.41C255.163 159.454 254.911 160.264 254.443 160.858C253.975 161.47 253.309 161.758 252.481 161.758C251.707 161.758 251.113 161.524 250.699 161.02C250.285 160.516 250.087 159.796 250.087 158.842V153.82H248.611V158.932C248.611 160.372 248.935 161.434 249.601 162.1C250.249 162.784 251.131 163.108 252.229 163.108C253.489 163.108 254.461 162.676 255.163 161.776L255.361 163H256.639V153.82ZM259.298 155.17V160.606C259.298 161.434 259.478 162.046 259.838 162.424C260.198 162.82 260.828 163 261.692 163H263.384V161.65H261.782C261.404 161.65 261.134 161.578 260.99 161.416C260.846 161.254 260.774 160.984 260.774 160.588V155.17H263.096V153.82H260.774V151.246H259.298V153.82H257.642V155.17H259.298ZM269.793 153.82H268.227L271.827 163.072L271.359 164.17C271.215 164.494 271.107 164.728 271.017 164.872C270.927 165.016 270.819 165.106 270.675 165.16C270.531 165.232 270.315 165.25 270.027 165.25H268.713V166.6H270.477C270.891 166.6 271.233 166.546 271.485 166.402C271.737 166.276 271.935 166.078 272.115 165.79C272.277 165.52 272.475 165.106 272.691 164.548L276.921 153.82H275.355L272.619 161.308L269.793 153.82ZM279.524 162.514C280.208 162.91 281 163.108 281.9 163.108C282.782 163.108 283.574 162.91 284.258 162.514C284.942 162.118 285.482 161.578 285.878 160.858C286.256 160.156 286.454 159.346 286.454 158.41C286.454 157.492 286.256 156.682 285.878 155.962C285.482 155.26 284.942 154.702 284.258 154.306C283.574 153.91 282.782 153.712 281.9 153.712C281 153.712 280.208 153.91 279.524 154.306C278.84 154.702 278.3 155.26 277.922 155.962C277.526 156.682 277.346 157.492 277.346 158.41C277.346 159.346 277.526 160.156 277.922 160.858C278.3 161.578 278.84 162.118 279.524 162.514ZM283.484 161.362C283.016 161.65 282.494 161.794 281.9 161.794C281.288 161.794 280.766 161.65 280.298 161.362C279.83 161.074 279.488 160.678 279.236 160.156C278.984 159.652 278.858 159.058 278.858 158.41C278.858 157.762 278.984 157.186 279.236 156.664C279.488 156.16 279.83 155.746 280.298 155.458C280.766 155.17 281.288 155.026 281.9 155.026C282.494 155.026 283.016 155.17 283.484 155.458C283.952 155.746 284.312 156.16 284.564 156.664C284.816 157.186 284.942 157.762 284.942 158.41C284.942 159.058 284.816 159.652 284.564 160.156C284.312 160.678 283.952 161.074 283.484 161.362ZM296.049 153.82H294.573V158.41C294.573 159.454 294.321 160.264 293.853 160.858C293.385 161.47 292.719 161.758 291.891 161.758C291.117 161.758 290.523 161.524 290.109 161.02C289.695 160.516 289.497 159.796 289.497 158.842V153.82H288.021V158.932C288.021 160.372 288.345 161.434 289.011 162.1C289.659 162.784 290.541 163.108 291.639 163.108C292.899 163.108 293.871 162.676 294.573 161.776L294.771 163H296.049V153.82ZM302.723 153.82H302.309C301.553 153.82 300.977 153.946 300.563 154.198C300.131 154.45 299.789 154.792 299.537 155.206L299.339 153.82H298.061V163H299.537V158.32C299.537 157.456 299.717 156.736 300.095 156.142C300.473 155.566 301.103 155.26 301.985 155.26H302.723V153.82ZM304.89 159.976H303.414C303.414 160.966 303.792 161.74 304.512 162.28C305.232 162.838 306.204 163.108 307.41 163.108C308.076 163.108 308.688 163 309.246 162.766C309.786 162.55 310.236 162.226 310.56 161.794C310.884 161.38 311.046 160.894 311.046 160.336C311.046 159.706 310.884 159.202 310.56 158.824C310.236 158.464 309.822 158.194 309.3 158.014C308.778 157.852 308.112 157.726 307.32 157.618C306.744 157.546 306.312 157.492 306.024 157.42C305.736 157.366 305.52 157.258 305.34 157.078C305.16 156.916 305.07 156.682 305.07 156.358C305.07 155.944 305.25 155.602 305.646 155.35C306.024 155.098 306.528 154.954 307.158 154.954C307.77 154.954 308.274 155.116 308.688 155.422C309.084 155.746 309.318 156.142 309.39 156.61H310.866C310.794 155.674 310.416 154.954 309.732 154.45C309.048 153.946 308.184 153.694 307.104 153.694C306.438 153.694 305.844 153.82 305.322 154.054C304.782 154.288 304.368 154.612 304.062 155.026C303.756 155.458 303.612 155.926 303.612 156.466C303.612 157.078 303.756 157.546 304.08 157.888C304.386 158.23 304.8 158.482 305.304 158.626C305.808 158.788 306.456 158.914 307.248 159.004C307.806 159.076 308.238 159.148 308.544 159.22C308.85 159.292 309.102 159.436 309.3 159.616C309.48 159.814 309.588 160.084 309.588 160.444C309.588 160.876 309.372 161.218 308.976 161.47C308.58 161.722 308.058 161.848 307.41 161.848C306.672 161.848 306.078 161.686 305.61 161.326C305.142 160.984 304.908 160.534 304.89 159.976ZM312.937 155.944C312.577 156.664 312.397 157.474 312.397 158.41C312.397 159.346 312.577 160.156 312.955 160.876C313.333 161.596 313.873 162.136 314.557 162.532C315.241 162.928 316.033 163.108 316.951 163.108C317.995 163.108 318.877 162.82 319.597 162.226C320.317 161.632 320.767 160.858 320.947 159.922H319.453C319.291 160.516 318.985 160.984 318.517 161.308C318.049 161.632 317.491 161.794 316.843 161.794C315.979 161.794 315.295 161.524 314.773 160.984C314.233 160.444 313.963 159.724 313.945 158.824V158.698H321.073C321.091 158.41 321.109 158.212 321.109 158.068C321.073 157.186 320.875 156.412 320.515 155.746C320.137 155.098 319.633 154.594 318.985 154.234C318.337 153.892 317.581 153.712 316.753 153.712C315.889 153.712 315.133 153.91 314.485 154.306C313.819 154.702 313.297 155.242 312.937 155.944ZM319.579 157.474H314.035C314.107 156.754 314.395 156.16 314.935 155.692C315.457 155.242 316.069 155.008 316.771 155.008C317.545 155.008 318.193 155.224 318.697 155.656C319.201 156.088 319.507 156.7 319.579 157.474ZM322.793 150.4V163H324.269V150.4H322.793ZM326.849 150.994C326.471 151.39 326.291 151.984 326.291 152.794V163H327.767V155.17H330.359V153.82H327.767V152.758C327.767 152.398 327.839 152.146 328.001 151.984C328.145 151.84 328.415 151.75 328.775 151.75H330.377V150.4H328.685C327.839 150.4 327.227 150.598 326.849 150.994ZM337.919 162.514C338.603 162.91 339.395 163.108 340.295 163.108C341.177 163.108 341.969 162.91 342.653 162.514C343.337 162.118 343.877 161.578 344.273 160.858C344.651 160.156 344.849 159.346 344.849 158.41C344.849 157.492 344.651 156.682 344.273 155.962C343.877 155.26 343.337 154.702 342.653 154.306C341.969 153.91 341.177 153.712 340.295 153.712C339.395 153.712 338.603 153.91 337.919 154.306C337.235 154.702 336.695 155.26 336.317 155.962C335.921 156.682 335.741 157.492 335.741 158.41C335.741 159.346 335.921 160.156 336.317 160.858C336.695 161.578 337.235 162.118 337.919 162.514ZM341.879 161.362C341.411 161.65 340.889 161.794 340.295 161.794C339.683 161.794 339.161 161.65 338.693 161.362C338.225 161.074 337.883 160.678 337.631 160.156C337.379 159.652 337.253 159.058 337.253 158.41C337.253 157.762 337.379 157.186 337.631 156.664C337.883 156.16 338.225 155.746 338.693 155.458C339.161 155.17 339.683 155.026 340.295 155.026C340.889 155.026 341.411 155.17 341.879 155.458C342.347 155.746 342.707 156.16 342.959 156.664C343.211 157.186 343.337 157.762 343.337 158.41C343.337 159.058 343.211 159.652 342.959 160.156C342.707 160.678 342.347 161.074 341.879 161.362ZM351.203 153.82H350.789C350.033 153.82 349.457 153.946 349.043 154.198C348.611 154.45 348.269 154.792 348.017 155.206L347.819 153.82H346.541V163H348.017V158.32C348.017 157.456 348.197 156.736 348.575 156.142C348.953 155.566 349.583 155.26 350.465 155.26H351.203V153.82ZM364.104 162.244C364.806 161.668 365.256 160.858 365.454 159.832H363.978C363.834 160.444 363.546 160.93 363.096 161.272C362.628 161.632 362.07 161.794 361.404 161.794C360.522 161.794 359.802 161.488 359.262 160.858C358.722 160.228 358.452 159.4 358.452 158.392C358.452 157.402 358.722 156.592 359.262 155.962C359.802 155.35 360.522 155.026 361.404 155.026C362.052 155.026 362.592 155.206 363.06 155.548C363.51 155.908 363.816 156.376 363.96 156.952H365.454C365.274 155.944 364.824 155.152 364.122 154.576C363.42 154 362.538 153.712 361.458 153.712C360.558 153.712 359.784 153.91 359.1 154.306C358.416 154.702 357.876 155.242 357.498 155.944C357.12 156.664 356.94 157.474 356.94 158.392C356.94 159.328 357.12 160.138 357.498 160.858C357.858 161.578 358.38 162.118 359.064 162.514C359.73 162.91 360.504 163.108 361.404 163.108C362.484 163.108 363.384 162.82 364.104 162.244ZM368.821 162.514C369.505 162.91 370.297 163.108 371.197 163.108C372.079 163.108 372.871 162.91 373.555 162.514C374.239 162.118 374.779 161.578 375.175 160.858C375.553 160.156 375.751 159.346 375.751 158.41C375.751 157.492 375.553 156.682 375.175 155.962C374.779 155.26 374.239 154.702 373.555 154.306C372.871 153.91 372.079 153.712 371.197 153.712C370.297 153.712 369.505 153.91 368.821 154.306C368.137 154.702 367.597 155.26 367.219 155.962C366.823 156.682 366.643 157.492 366.643 158.41C366.643 159.346 366.823 160.156 367.219 160.858C367.597 161.578 368.137 162.118 368.821 162.514ZM372.781 161.362C372.313 161.65 371.791 161.794 371.197 161.794C370.585 161.794 370.063 161.65 369.595 161.362C369.127 161.074 368.785 160.678 368.533 160.156C368.281 159.652 368.155 159.058 368.155 158.41C368.155 157.762 368.281 157.186 368.533 156.664C368.785 156.16 369.127 155.746 369.595 155.458C370.063 155.17 370.585 155.026 371.197 155.026C371.791 155.026 372.313 155.17 372.781 155.458C373.249 155.746 373.609 156.16 373.861 156.664C374.113 157.186 374.239 157.762 374.239 158.41C374.239 159.058 374.113 159.652 373.861 160.156C373.609 160.678 373.249 161.074 372.781 161.362ZM390.188 154.684C389.54 154.036 388.712 153.712 387.686 153.712C386.21 153.712 385.148 154.306 384.5 155.458C384.248 154.882 383.852 154.45 383.348 154.162C382.844 153.874 382.25 153.712 381.602 153.712C380.468 153.712 379.568 154.18 378.92 155.08L378.722 153.82H377.444V163H378.92V158.158C378.92 157.24 379.136 156.502 379.568 155.926C380 155.35 380.594 155.062 381.35 155.062C382.052 155.062 382.592 155.296 382.988 155.764C383.366 156.232 383.564 156.916 383.564 157.798V163H385.04V158.086C385.04 157.15 385.256 156.412 385.688 155.872C386.12 155.332 386.732 155.062 387.506 155.062C388.19 155.062 388.73 155.296 389.108 155.764C389.486 156.232 389.684 156.916 389.684 157.798V163H391.16V157.708C391.16 156.34 390.836 155.332 390.188 154.684ZM399.947 154.27C399.281 153.91 398.525 153.712 397.679 153.712C396.347 153.712 395.285 154.252 394.529 155.296L394.331 153.82H393.053V166.6H394.529V161.596C394.817 162.064 395.231 162.442 395.771 162.712C396.293 162.982 396.923 163.108 397.679 163.108C398.507 163.108 399.263 162.91 399.947 162.514C400.613 162.118 401.135 161.578 401.513 160.858C401.891 160.156 402.089 159.346 402.089 158.41C402.089 157.438 401.891 156.61 401.513 155.89C401.135 155.188 400.613 154.648 399.947 154.27ZM399.731 160.858C399.173 161.488 398.435 161.794 397.535 161.794C396.941 161.794 396.419 161.65 395.951 161.362C395.483 161.074 395.141 160.678 394.889 160.156C394.637 159.634 394.511 159.04 394.511 158.374C394.511 157.726 394.637 157.15 394.889 156.646C395.141 156.142 395.483 155.746 395.951 155.458C396.419 155.17 396.941 155.026 397.535 155.026C398.435 155.026 399.173 155.35 399.731 155.98C400.289 156.61 400.577 157.42 400.577 158.41C400.577 159.418 400.289 160.228 399.731 160.858ZM412.362 161.65H411.912C411.498 161.65 411.3 161.434 411.3 160.984V157.024C411.3 155.962 410.976 155.152 410.328 154.576C409.68 154 408.78 153.712 407.61 153.712C406.494 153.712 405.594 153.964 404.91 154.468C404.226 154.972 403.83 155.674 403.722 156.574H405.198C405.288 156.106 405.54 155.746 405.954 155.458C406.368 155.17 406.89 155.026 407.538 155.026C408.258 155.026 408.816 155.206 409.212 155.53C409.608 155.872 409.824 156.34 409.824 156.934V157.564H407.124C405.918 157.564 405 157.816 404.37 158.302C403.74 158.806 403.434 159.508 403.434 160.426C403.434 161.254 403.74 161.92 404.352 162.388C404.964 162.874 405.792 163.108 406.818 163.108C408.15 163.108 409.176 162.604 409.896 161.578C409.896 162.046 410.04 162.406 410.292 162.64C410.544 162.892 410.958 163 411.552 163H412.362V161.65ZM409.824 158.806V159.256C409.824 160.048 409.554 160.678 409.05 161.146C408.528 161.614 407.826 161.848 406.926 161.848C406.314 161.848 405.828 161.722 405.468 161.434C405.108 161.164 404.928 160.804 404.928 160.336C404.928 159.328 405.612 158.806 406.98 158.806H409.824ZM420.678 154.72C419.994 154.054 419.112 153.712 417.996 153.712C416.664 153.712 415.656 154.162 414.972 155.062L414.774 153.82H413.496V163H414.972V158.41C414.972 157.384 415.206 156.574 415.71 155.962C416.196 155.368 416.88 155.062 417.744 155.062C418.536 155.062 419.148 155.314 419.58 155.818C420.012 156.322 420.228 157.042 420.228 157.978V163H421.704V157.888C421.704 156.448 421.362 155.404 420.678 154.72ZM423.97 153.82H422.404L426.004 163.072L425.536 164.17C425.392 164.494 425.284 164.728 425.194 164.872C425.104 165.016 424.996 165.106 424.852 165.16C424.708 165.232 424.492 165.25 424.204 165.25H422.89V166.6H424.654C425.068 166.6 425.41 166.546 425.662 166.402C425.914 166.276 426.112 166.078 426.292 165.79C426.454 165.52 426.652 165.106 426.868 164.548L431.098 153.82H429.532L426.796 161.308L423.97 153.82Z" fill="#444444"/>
<rect x="80.5752" y="192.575" width="486.85" height="54.8496" rx="15.4248" fill="white"/>
<g filter="url(#filter1_dd_4_4601)">
<rect x="88" y="200" width="230" height="40" rx="12" fill="#11453B"/>
<path d="M165.316 225V213.398H167.058V225H165.316ZM169.853 216.711H171.337L171.517 218.039C171.778 217.581 172.153 217.219 172.642 216.953C173.137 216.688 173.684 216.555 174.283 216.555C175.267 216.555 176.025 216.839 176.556 217.406C177.087 217.969 177.353 218.766 177.353 219.797V225H175.673V219.992C175.673 219.341 175.509 218.846 175.181 218.508C174.858 218.164 174.405 217.992 173.822 217.992C173.124 217.992 172.564 218.224 172.142 218.688C171.726 219.151 171.517 219.779 171.517 220.57V225H169.853V216.711ZM188.32 213V225H186.852L186.719 223.656C186.437 224.13 186.013 224.5 185.445 224.766C184.878 225.026 184.229 225.156 183.5 225.156C182.266 225.156 181.271 224.76 180.516 223.969C179.766 223.172 179.391 222.146 179.391 220.891C179.391 219.594 179.784 218.547 180.57 217.75C181.357 216.953 182.378 216.555 183.633 216.555C184.279 216.555 184.865 216.667 185.391 216.891C185.922 217.109 186.344 217.422 186.656 217.828V213H188.32ZM186.656 220.984V220.773C186.656 219.935 186.401 219.26 185.891 218.75C185.38 218.234 184.708 217.977 183.875 217.977C183.016 217.977 182.336 218.237 181.836 218.758C181.336 219.279 181.086 219.984 181.086 220.875C181.086 221.755 181.336 222.453 181.836 222.969C182.336 223.479 183.005 223.734 183.844 223.734C184.687 223.734 185.367 223.49 185.883 223C186.398 222.505 186.656 221.833 186.656 220.984ZM190.561 213.781C190.561 213.464 190.67 213.208 190.889 213.016C191.108 212.823 191.402 212.727 191.772 212.727C192.126 212.727 192.412 212.828 192.631 213.031C192.85 213.229 192.959 213.479 192.959 213.781C192.959 214.104 192.85 214.367 192.631 214.57C192.412 214.773 192.126 214.875 191.772 214.875C191.402 214.875 191.108 214.773 190.889 214.57C190.67 214.367 190.561 214.104 190.561 213.781ZM190.928 216.711H192.608V225H190.928V216.711ZM202.653 216.711L199.387 225H197.45L194.208 216.711H196.012L198.442 223.461L200.864 216.711H202.653ZM203.902 213.781C203.902 213.464 204.011 213.208 204.23 213.016C204.448 212.823 204.743 212.727 205.112 212.727C205.467 212.727 205.753 212.828 205.972 213.031C206.191 213.229 206.3 213.479 206.3 213.781C206.3 214.104 206.191 214.367 205.972 214.57C205.753 214.773 205.467 214.875 205.112 214.875C204.743 214.875 204.448 214.773 204.23 214.57C204.011 214.367 203.902 214.104 203.902 213.781ZM204.269 216.711H205.948V225H204.269V216.711ZM216.955 213V225H215.486L215.353 223.656C215.072 224.13 214.647 224.5 214.08 224.766C213.512 225.026 212.864 225.156 212.134 225.156C210.9 225.156 209.905 224.76 209.15 223.969C208.4 223.172 208.025 222.146 208.025 220.891C208.025 219.594 208.418 218.547 209.205 217.75C209.991 216.953 211.012 216.555 212.267 216.555C212.913 216.555 213.499 216.667 214.025 216.891C214.556 217.109 214.978 217.422 215.291 217.828V213H216.955ZM215.291 220.984V220.773C215.291 219.935 215.035 219.26 214.525 218.75C214.015 218.234 213.343 217.977 212.509 217.977C211.65 217.977 210.97 218.237 210.47 218.758C209.97 219.279 209.72 219.984 209.72 220.875C209.72 221.755 209.97 222.453 210.47 222.969C210.97 223.479 211.64 223.734 212.478 223.734C213.322 223.734 214.002 223.49 214.517 223C215.033 222.505 215.291 221.833 215.291 220.984ZM219.422 221.992V216.711H221.086V221.672C221.086 222.188 221.208 222.661 221.453 223.094C221.693 223.521 222.193 223.734 222.953 223.734C223.661 223.734 224.219 223.518 224.625 223.086C225.036 222.648 225.242 222.096 225.242 221.43V216.711H226.906V225H225.422L225.227 223.625C225.013 224.078 224.646 224.448 224.125 224.734C223.609 225.016 223.049 225.156 222.445 225.156C221.471 225.156 220.724 224.875 220.203 224.312C219.682 223.745 219.422 222.971 219.422 221.992ZM229.077 222.805C229.077 222.081 229.334 221.513 229.85 221.102C230.366 220.685 231.116 220.422 232.1 220.312L234.866 220.008V219.719C234.866 219.125 234.694 218.674 234.35 218.367C234.006 218.055 233.527 217.898 232.913 217.898C232.277 217.898 231.774 218.047 231.405 218.344C231.035 218.635 230.866 219.026 230.897 219.516H229.311C229.311 218.62 229.652 217.904 230.334 217.367C231.022 216.826 231.923 216.555 233.038 216.555C234.116 216.555 234.97 216.849 235.6 217.438C236.23 218.021 236.545 218.878 236.545 220.008V225H235.053L234.959 223.461C234.73 223.961 234.316 224.37 233.717 224.688C233.118 225 232.462 225.156 231.748 225.156C230.952 225.156 230.306 224.943 229.811 224.516C229.321 224.083 229.077 223.513 229.077 222.805ZM234.866 221.398V221.078L232.452 221.383C231.321 221.523 230.756 221.951 230.756 222.664C230.756 223.029 230.886 223.315 231.147 223.523C231.413 223.727 231.782 223.828 232.256 223.828C232.756 223.828 233.212 223.701 233.623 223.445C234.035 223.185 234.345 222.872 234.553 222.508C234.761 222.138 234.866 221.768 234.866 221.398ZM239.106 213H240.77V225H239.106V213Z" fill="white"/>
</g>
<rect x="330" y="200" width="230" height="40" rx="12" fill="#F2F1F1"/>
<path d="M412.231 213.242C413.638 213.242 414.835 213.609 415.825 214.344C416.82 215.078 417.429 216.049 417.653 217.258H415.802C415.588 216.503 415.161 215.911 414.52 215.484C413.885 215.057 413.127 214.844 412.247 214.844C411.049 214.844 410.088 215.245 409.364 216.047C408.64 216.844 408.278 217.893 408.278 219.195C408.278 220.513 408.64 221.57 409.364 222.367C410.088 223.164 411.039 223.562 412.216 223.562C413.101 223.562 413.864 223.344 414.505 222.906C415.151 222.464 415.583 221.875 415.802 221.141H417.653C417.429 222.349 416.82 223.32 415.825 224.055C414.835 224.789 413.638 225.156 412.231 225.156C411.111 225.172 410.109 224.93 409.223 224.43C408.338 223.924 407.651 223.216 407.161 222.305C406.677 221.393 406.442 220.357 406.458 219.195C406.458 218.029 406.697 216.995 407.177 216.094C407.661 215.188 408.341 214.487 409.216 213.992C410.091 213.492 411.096 213.242 412.231 213.242ZM423.816 216.555C425.123 216.555 426.196 216.956 427.034 217.758C427.873 218.555 428.292 219.589 428.292 220.859C428.292 222.13 427.873 223.164 427.034 223.961C426.196 224.758 425.123 225.156 423.816 225.156C422.498 225.156 421.42 224.76 420.581 223.969C419.748 223.172 419.331 222.135 419.331 220.859C419.331 219.583 419.748 218.547 420.581 217.75C421.42 216.953 422.498 216.555 423.816 216.555ZM423.831 223.703C424.665 223.703 425.331 223.445 425.831 222.93C426.331 222.414 426.581 221.724 426.581 220.859C426.581 219.995 426.331 219.305 425.831 218.789C425.331 218.268 424.665 218.008 423.831 218.008C422.993 218.008 422.318 218.271 421.808 218.797C421.297 219.318 421.042 220.01 421.042 220.875C421.042 221.734 421.295 222.422 421.8 222.938C422.31 223.448 422.988 223.703 423.831 223.703ZM442.4 219.562V225H440.72V219.703C440.72 219.135 440.58 218.708 440.298 218.422C440.022 218.135 439.629 217.992 439.119 217.992C438.509 217.992 438.038 218.195 437.705 218.602C437.377 219.003 437.213 219.562 437.213 220.281V225H435.564V219.898C435.564 219.263 435.426 218.786 435.15 218.469C434.874 218.151 434.473 217.992 433.947 217.992C433.353 217.992 432.892 218.185 432.564 218.57C432.241 218.951 432.08 219.477 432.08 220.148V225H430.416V216.711H431.869L432.002 217.812C432.252 217.417 432.585 217.109 433.002 216.891C433.418 216.667 433.879 216.555 434.384 216.555C434.973 216.555 435.486 216.69 435.923 216.961C436.361 217.232 436.663 217.607 436.83 218.086C437.043 217.612 437.392 217.24 437.877 216.969C438.361 216.693 438.918 216.555 439.548 216.555C440.449 216.555 441.15 216.82 441.65 217.352C442.15 217.883 442.4 218.62 442.4 219.562ZM453.961 220.82C453.961 222.117 453.568 223.164 452.781 223.961C451.995 224.758 450.974 225.156 449.719 225.156C449.078 225.156 448.492 225.047 447.961 224.828C447.43 224.604 447.003 224.294 446.68 223.898V228.203H445.016V216.711H446.5L446.617 218.008C446.93 217.555 447.37 217.201 447.938 216.945C448.505 216.685 449.135 216.555 449.828 216.555C451.047 216.555 452.039 216.948 452.805 217.734C453.576 218.521 453.961 219.549 453.961 220.82ZM452.25 220.859C452.25 219.984 452.003 219.286 451.508 218.766C451.013 218.24 450.346 217.977 449.508 217.977C448.664 217.977 447.982 218.227 447.461 218.727C446.94 219.221 446.68 219.893 446.68 220.742V220.953C446.68 221.786 446.935 222.458 447.445 222.969C447.961 223.479 448.638 223.734 449.477 223.734C450.32 223.734 450.992 223.479 451.492 222.969C451.997 222.453 452.25 221.75 452.25 220.859ZM455.655 222.805C455.655 222.081 455.913 221.513 456.428 221.102C456.944 220.685 457.694 220.422 458.678 220.312L461.444 220.008V219.719C461.444 219.125 461.272 218.674 460.928 218.367C460.584 218.055 460.105 217.898 459.491 217.898C458.855 217.898 458.353 218.047 457.983 218.344C457.613 218.635 457.444 219.026 457.475 219.516H455.889C455.889 218.62 456.23 217.904 456.913 217.367C457.6 216.826 458.501 216.555 459.616 216.555C460.694 216.555 461.548 216.849 462.178 217.438C462.808 218.021 463.123 218.878 463.123 220.008V225H461.631L461.538 223.461C461.308 223.961 460.894 224.37 460.295 224.688C459.696 225 459.04 225.156 458.327 225.156C457.53 225.156 456.884 224.943 456.389 224.516C455.899 224.083 455.655 223.513 455.655 222.805ZM461.444 221.398V221.078L459.03 221.383C457.899 221.523 457.334 221.951 457.334 222.664C457.334 223.029 457.465 223.315 457.725 223.523C457.991 223.727 458.36 223.828 458.834 223.828C459.334 223.828 459.79 223.701 460.202 223.445C460.613 223.185 460.923 222.872 461.131 222.508C461.34 222.138 461.444 221.768 461.444 221.398ZM465.716 216.711H467.2L467.38 218.039C467.64 217.581 468.015 217.219 468.505 216.953C468.999 216.688 469.546 216.555 470.145 216.555C471.13 216.555 471.888 216.839 472.419 217.406C472.95 217.969 473.216 218.766 473.216 219.797V225H471.536V219.992C471.536 219.341 471.372 218.846 471.044 218.508C470.721 218.164 470.268 217.992 469.684 217.992C468.986 217.992 468.427 218.224 468.005 218.688C467.588 219.151 467.38 219.779 467.38 220.57V225H465.716V216.711ZM483.175 216.711V224.984C483.175 226.016 482.823 226.836 482.12 227.445C481.422 228.055 480.482 228.359 479.3 228.359C478.185 228.359 477.305 228.107 476.659 227.602C476.014 227.102 475.662 226.406 475.605 225.516H477.253C477.29 225.99 477.488 226.357 477.847 226.617C478.211 226.883 478.691 227.016 479.284 227.016C479.982 227.016 480.527 226.841 480.917 226.492C481.313 226.143 481.511 225.667 481.511 225.062V223.016C481.235 223.469 480.86 223.812 480.386 224.047C479.917 224.276 479.386 224.391 478.792 224.391C477.808 224.391 477.05 224.104 476.519 223.531C475.988 222.953 475.722 222.151 475.722 221.125V216.711H477.386V220.922C477.386 221.609 477.547 222.122 477.87 222.461C478.198 222.799 478.659 222.969 479.253 222.969C479.946 222.969 480.495 222.753 480.902 222.32C481.308 221.883 481.511 221.331 481.511 220.664V216.711H483.175Z" fill="#515251"/>
<rect x="80.5752" y="192.575" width="486.85" height="54.8496" rx="15.4248" stroke="#E7E8E7" stroke-width="1.15042"/>
<rect x="80.5" y="284.5" width="487" height="47" rx="15.5" fill="white"/>
<path d="M96.952 304.2H103.042V305.32H98.17V308.596H102.202V309.716H98.17V314H96.952V304.2ZM105.536 304.312C105.676 304.452 105.746 304.634 105.746 304.844C105.746 305.068 105.676 305.236 105.536 305.376C105.396 305.516 105.214 305.586 105.004 305.586C104.78 305.586 104.612 305.516 104.472 305.376C104.332 305.236 104.262 305.068 104.262 304.844C104.262 304.634 104.332 304.452 104.472 304.312C104.612 304.172 104.78 304.102 105.004 304.102C105.214 304.102 105.396 304.172 105.536 304.312ZM104.43 306.86H105.578V314H104.43V306.86ZM111.027 306.86V307.98H110.453C109.767 307.98 109.277 308.218 108.983 308.666C108.689 309.128 108.549 309.688 108.549 310.36V314H107.401V306.86H108.395L108.549 307.938C108.745 307.616 109.011 307.35 109.347 307.154C109.669 306.958 110.117 306.86 110.705 306.86H111.027ZM112.963 311.648C112.977 312.082 113.159 312.432 113.523 312.698C113.887 312.978 114.349 313.104 114.923 313.104C115.427 313.104 115.833 313.006 116.141 312.81C116.449 312.614 116.617 312.348 116.617 312.012C116.617 311.732 116.533 311.522 116.393 311.368C116.239 311.228 116.043 311.116 115.805 311.06C115.567 311.004 115.231 310.948 114.797 310.892C114.181 310.822 113.677 310.724 113.285 310.598C112.893 310.486 112.571 310.29 112.333 310.024C112.081 309.758 111.969 309.394 111.969 308.918C111.969 308.498 112.081 308.134 112.319 307.798C112.557 307.476 112.879 307.224 113.299 307.042C113.705 306.86 114.167 306.762 114.685 306.762C115.525 306.762 116.197 306.958 116.729 307.35C117.261 307.742 117.555 308.302 117.611 309.03H116.463C116.407 308.666 116.225 308.358 115.917 308.106C115.595 307.868 115.203 307.742 114.727 307.742C114.237 307.742 113.845 307.854 113.551 308.05C113.243 308.246 113.103 308.512 113.103 308.834C113.103 309.086 113.173 309.268 113.313 309.394C113.453 309.534 113.621 309.618 113.845 309.66C114.069 309.716 114.405 309.758 114.853 309.814C115.469 309.898 115.987 309.996 116.393 310.122C116.799 310.262 117.121 310.472 117.373 310.752C117.625 311.046 117.751 311.438 117.751 311.928C117.751 312.362 117.625 312.74 117.373 313.062C117.121 313.398 116.771 313.65 116.351 313.818C115.917 314 115.441 314.084 114.923 314.084C113.985 314.084 113.229 313.874 112.669 313.44C112.109 313.02 111.815 312.418 111.815 311.648H112.963ZM119.78 307.91H118.492V306.86H119.78V304.858H120.928V306.86H122.734V307.91H120.928V312.124C120.928 312.432 120.984 312.642 121.096 312.768C121.208 312.894 121.418 312.95 121.712 312.95H122.958V314H121.642C120.97 314 120.48 313.86 120.2 313.552C119.92 313.258 119.78 312.782 119.78 312.138V307.91ZM128.106 314V304.2H129.226L134.49 311.76V304.2H135.68V314H134.56L129.296 306.44V314H128.106ZM144.341 312.95V314H143.711C143.249 314 142.927 313.916 142.731 313.72C142.535 313.538 142.423 313.258 142.423 312.894C141.863 313.692 141.065 314.084 140.029 314.084C139.231 314.084 138.587 313.902 138.111 313.524C137.635 313.16 137.397 312.642 137.397 311.998C137.397 311.284 137.635 310.738 138.125 310.346C138.615 309.968 139.329 309.772 140.267 309.772H142.367V309.282C142.367 308.82 142.199 308.456 141.891 308.19C141.583 307.938 141.149 307.798 140.589 307.798C140.085 307.798 139.679 307.91 139.357 308.134C139.035 308.358 138.839 308.638 138.769 309.002H137.621C137.705 308.302 138.013 307.756 138.545 307.364C139.077 306.972 139.777 306.776 140.645 306.776C141.555 306.776 142.255 307 142.759 307.448C143.263 307.896 143.515 308.526 143.515 309.352V312.432C143.515 312.782 143.669 312.95 143.991 312.95H144.341ZM142.367 310.738H140.155C139.091 310.738 138.559 311.144 138.559 311.928C138.559 312.292 138.699 312.572 138.979 312.782C139.259 313.006 139.637 313.104 140.113 313.104C140.813 313.104 141.359 312.922 141.765 312.558C142.157 312.194 142.367 311.704 142.367 311.088V310.738ZM155.385 307.532C155.889 308.036 156.141 308.82 156.141 309.884V314H154.993V309.954C154.993 309.268 154.839 308.736 154.545 308.372C154.251 308.008 153.831 307.826 153.299 307.826C152.697 307.826 152.221 308.036 151.885 308.456C151.549 308.876 151.381 309.45 151.381 310.178V314H150.233V309.954C150.233 309.268 150.079 308.736 149.785 308.372C149.477 308.008 149.057 307.826 148.511 307.826C147.923 307.826 147.461 308.05 147.125 308.498C146.789 308.946 146.621 309.52 146.621 310.234V314H145.473V306.86H146.467L146.621 307.84C147.125 307.14 147.825 306.776 148.707 306.776C149.211 306.776 149.673 306.902 150.065 307.126C150.457 307.35 150.765 307.686 150.961 308.134C151.465 307.238 152.291 306.776 153.439 306.776C154.237 306.776 154.881 307.028 155.385 307.532ZM158.032 308.512C158.312 307.966 158.718 307.546 159.236 307.238C159.74 306.93 160.328 306.776 161 306.776C161.644 306.776 162.232 306.916 162.736 307.182C163.24 307.462 163.632 307.854 163.926 308.358C164.206 308.876 164.36 309.478 164.388 310.164C164.388 310.276 164.374 310.43 164.36 310.654H158.816V310.752C158.83 311.452 159.04 312.012 159.46 312.432C159.866 312.852 160.398 313.062 161.07 313.062C161.574 313.062 162.008 312.936 162.372 312.684C162.736 312.432 162.974 312.068 163.1 311.606H164.262C164.122 312.334 163.772 312.936 163.212 313.398C162.652 313.86 161.966 314.084 161.154 314.084C160.44 314.084 159.824 313.944 159.292 313.636C158.76 313.328 158.34 312.908 158.046 312.348C157.752 311.788 157.612 311.158 157.612 310.43C157.612 309.702 157.752 309.072 158.032 308.512ZM163.198 309.702C163.142 309.1 162.904 308.624 162.512 308.288C162.12 307.952 161.616 307.784 161.014 307.784C160.468 307.784 159.992 307.966 159.586 308.316C159.166 308.68 158.942 309.142 158.886 309.702H163.198Z" fill="#8D8E8D"/>
<rect x="80.5" y="284.5" width="487" height="47" rx="15.5" stroke="#B5B6B5"/>
<rect x="80.5" y="356.5" width="487" height="47" rx="15.5" fill="white"/>
<path d="M96.952 386V376.2H98.17V384.88H102.636V386H96.952ZM110.548 384.95V386H109.918C109.456 386 109.134 385.916 108.938 385.72C108.742 385.538 108.63 385.258 108.63 384.894C108.07 385.692 107.272 386.084 106.236 386.084C105.438 386.084 104.794 385.902 104.318 385.524C103.842 385.16 103.604 384.642 103.604 383.998C103.604 383.284 103.842 382.738 104.332 382.346C104.822 381.968 105.536 381.772 106.474 381.772H108.574V381.282C108.574 380.82 108.406 380.456 108.098 380.19C107.79 379.938 107.356 379.798 106.796 379.798C106.292 379.798 105.886 379.91 105.564 380.134C105.242 380.358 105.046 380.638 104.976 381.002H103.828C103.912 380.302 104.22 379.756 104.752 379.364C105.284 378.972 105.984 378.776 106.852 378.776C107.762 378.776 108.462 379 108.966 379.448C109.47 379.896 109.722 380.526 109.722 381.352V384.432C109.722 384.782 109.876 384.95 110.198 384.95H110.548ZM108.574 382.738H106.362C105.298 382.738 104.766 383.144 104.766 383.928C104.766 384.292 104.906 384.572 105.186 384.782C105.466 385.006 105.844 385.104 106.32 385.104C107.02 385.104 107.566 384.922 107.972 384.558C108.364 384.194 108.574 383.704 108.574 383.088V382.738ZM112.576 383.648C112.59 384.082 112.772 384.432 113.136 384.698C113.5 384.978 113.962 385.104 114.536 385.104C115.04 385.104 115.446 385.006 115.754 384.81C116.062 384.614 116.23 384.348 116.23 384.012C116.23 383.732 116.146 383.522 116.006 383.368C115.852 383.228 115.656 383.116 115.418 383.06C115.18 383.004 114.844 382.948 114.41 382.892C113.794 382.822 113.29 382.724 112.898 382.598C112.506 382.486 112.184 382.29 111.946 382.024C111.694 381.758 111.582 381.394 111.582 380.918C111.582 380.498 111.694 380.134 111.932 379.798C112.17 379.476 112.492 379.224 112.912 379.042C113.318 378.86 113.78 378.762 114.298 378.762C115.138 378.762 115.81 378.958 116.342 379.35C116.874 379.742 117.168 380.302 117.224 381.03H116.076C116.02 380.666 115.838 380.358 115.53 380.106C115.208 379.868 114.816 379.742 114.34 379.742C113.85 379.742 113.458 379.854 113.164 380.05C112.856 380.246 112.716 380.512 112.716 380.834C112.716 381.086 112.786 381.268 112.926 381.394C113.066 381.534 113.234 381.618 113.458 381.66C113.682 381.716 114.018 381.758 114.466 381.814C115.082 381.898 115.6 381.996 116.006 382.122C116.412 382.262 116.734 382.472 116.986 382.752C117.238 383.046 117.364 383.438 117.364 383.928C117.364 384.362 117.238 384.74 116.986 385.062C116.734 385.398 116.384 385.65 115.964 385.818C115.53 386 115.054 386.084 114.536 386.084C113.598 386.084 112.842 385.874 112.282 385.44C111.722 385.02 111.428 384.418 111.428 383.648H112.576ZM119.393 379.91H118.105V378.86H119.393V376.858H120.541V378.86H122.347V379.91H120.541V384.124C120.541 384.432 120.597 384.642 120.709 384.768C120.821 384.894 121.031 384.95 121.325 384.95H122.571V386H121.255C120.583 386 120.093 385.86 119.813 385.552C119.533 385.258 119.393 384.782 119.393 384.138V379.91ZM127.72 386V376.2H128.84L134.104 383.76V376.2H135.294V386H134.174L128.91 378.44V386H127.72ZM143.954 384.95V386H143.324C142.862 386 142.54 385.916 142.344 385.72C142.148 385.538 142.036 385.258 142.036 384.894C141.476 385.692 140.678 386.084 139.642 386.084C138.844 386.084 138.2 385.902 137.724 385.524C137.248 385.16 137.01 384.642 137.01 383.998C137.01 383.284 137.248 382.738 137.738 382.346C138.228 381.968 138.942 381.772 139.88 381.772H141.98V381.282C141.98 380.82 141.812 380.456 141.504 380.19C141.196 379.938 140.762 379.798 140.202 379.798C139.698 379.798 139.292 379.91 138.97 380.134C138.648 380.358 138.452 380.638 138.382 381.002H137.234C137.318 380.302 137.626 379.756 138.158 379.364C138.69 378.972 139.39 378.776 140.258 378.776C141.168 378.776 141.868 379 142.372 379.448C142.876 379.896 143.128 380.526 143.128 381.352V384.432C143.128 384.782 143.282 384.95 143.604 384.95H143.954ZM141.98 382.738H139.768C138.704 382.738 138.172 383.144 138.172 383.928C138.172 384.292 138.312 384.572 138.592 384.782C138.872 385.006 139.25 385.104 139.726 385.104C140.426 385.104 140.972 384.922 141.378 384.558C141.77 384.194 141.98 383.704 141.98 383.088V382.738ZM154.999 379.532C155.503 380.036 155.755 380.82 155.755 381.884V386H154.607V381.954C154.607 381.268 154.453 380.736 154.159 380.372C153.865 380.008 153.445 379.826 152.913 379.826C152.311 379.826 151.835 380.036 151.499 380.456C151.163 380.876 150.995 381.45 150.995 382.178V386H149.847V381.954C149.847 381.268 149.693 380.736 149.399 380.372C149.091 380.008 148.671 379.826 148.125 379.826C147.537 379.826 147.075 380.05 146.739 380.498C146.403 380.946 146.235 381.52 146.235 382.234V386H145.087V378.86H146.081L146.235 379.84C146.739 379.14 147.439 378.776 148.321 378.776C148.825 378.776 149.287 378.902 149.679 379.126C150.071 379.35 150.379 379.686 150.575 380.134C151.079 379.238 151.905 378.776 153.053 378.776C153.851 378.776 154.495 379.028 154.999 379.532ZM157.645 380.512C157.925 379.966 158.331 379.546 158.849 379.238C159.353 378.93 159.941 378.776 160.613 378.776C161.257 378.776 161.845 378.916 162.349 379.182C162.853 379.462 163.245 379.854 163.539 380.358C163.819 380.876 163.973 381.478 164.001 382.164C164.001 382.276 163.987 382.43 163.973 382.654H158.429V382.752C158.443 383.452 158.653 384.012 159.073 384.432C159.479 384.852 160.011 385.062 160.683 385.062C161.187 385.062 161.621 384.936 161.985 384.684C162.349 384.432 162.587 384.068 162.713 383.606H163.875C163.735 384.334 163.385 384.936 162.825 385.398C162.265 385.86 161.579 386.084 160.767 386.084C160.053 386.084 159.437 385.944 158.905 385.636C158.373 385.328 157.953 384.908 157.659 384.348C157.365 383.788 157.225 383.158 157.225 382.43C157.225 381.702 157.365 381.072 157.645 380.512ZM162.811 381.702C162.755 381.1 162.517 380.624 162.125 380.288C161.733 379.952 161.229 379.784 160.627 379.784C160.081 379.784 159.605 379.966 159.199 380.316C158.779 380.68 158.555 381.142 158.499 381.702H162.811Z" fill="#8D8E8D"/>
<rect x="80.5" y="356.5" width="487" height="47" rx="15.5" stroke="#B5B6B5"/>
<rect x="80.5" y="428.5" width="487" height="47" rx="15.5" fill="white"/>
<path d="M96.952 448.2H103.196V449.32H98.17V452.456H102.356V453.576H98.17V456.88H103.378V458H96.952V448.2ZM114.739 451.532C115.243 452.036 115.495 452.82 115.495 453.884V458H114.347V453.954C114.347 453.268 114.193 452.736 113.899 452.372C113.605 452.008 113.185 451.826 112.653 451.826C112.051 451.826 111.575 452.036 111.239 452.456C110.903 452.876 110.735 453.45 110.735 454.178V458H109.587V453.954C109.587 453.268 109.433 452.736 109.139 452.372C108.831 452.008 108.411 451.826 107.865 451.826C107.277 451.826 106.815 452.05 106.479 452.498C106.143 452.946 105.975 453.52 105.975 454.234V458H104.827V450.86H105.821L105.975 451.84C106.479 451.14 107.179 450.776 108.061 450.776C108.565 450.776 109.027 450.902 109.419 451.126C109.811 451.35 110.119 451.686 110.315 452.134C110.819 451.238 111.645 450.776 112.793 450.776C113.591 450.776 114.235 451.028 114.739 451.532ZM123.896 456.95V458H123.266C122.804 458 122.482 457.916 122.286 457.72C122.09 457.538 121.978 457.258 121.978 456.894C121.418 457.692 120.62 458.084 119.584 458.084C118.786 458.084 118.142 457.902 117.666 457.524C117.19 457.16 116.952 456.642 116.952 455.998C116.952 455.284 117.19 454.738 117.68 454.346C118.17 453.968 118.884 453.772 119.822 453.772H121.922V453.282C121.922 452.82 121.754 452.456 121.446 452.19C121.138 451.938 120.704 451.798 120.144 451.798C119.64 451.798 119.234 451.91 118.912 452.134C118.59 452.358 118.394 452.638 118.324 453.002H117.176C117.26 452.302 117.568 451.756 118.1 451.364C118.632 450.972 119.332 450.776 120.2 450.776C121.11 450.776 121.81 451 122.314 451.448C122.818 451.896 123.07 452.526 123.07 453.352V456.432C123.07 456.782 123.224 456.95 123.546 456.95H123.896ZM121.922 454.738H119.71C118.646 454.738 118.114 455.144 118.114 455.928C118.114 456.292 118.254 456.572 118.534 456.782C118.814 457.006 119.192 457.104 119.668 457.104C120.368 457.104 120.914 456.922 121.32 456.558C121.712 456.194 121.922 455.704 121.922 455.088V454.738ZM126.134 448.312C126.274 448.452 126.344 448.634 126.344 448.844C126.344 449.068 126.274 449.236 126.134 449.376C125.994 449.516 125.812 449.586 125.602 449.586C125.378 449.586 125.21 449.516 125.07 449.376C124.93 449.236 124.86 449.068 124.86 448.844C124.86 448.634 124.93 448.452 125.07 448.312C125.21 448.172 125.378 448.102 125.602 448.102C125.812 448.102 125.994 448.172 126.134 448.312ZM125.028 450.86H126.176V458H125.028V450.86ZM127.999 448.2H129.147V458H127.999V448.2Z" fill="#8D8E8D"/>
<rect x="80.5" y="428.5" width="487" height="47" rx="15.5" stroke="#B5B6B5"/>
<rect x="80.5" y="500.5" width="487" height="47" rx="15.5" fill="white"/>
<path d="M99.948 520.2V527.69C99.948 528.446 99.752 529.02 99.36 529.412C98.968 529.804 98.394 530 97.638 530H96.364V528.852H97.484C97.918 528.852 98.24 528.754 98.436 528.558C98.632 528.362 98.73 528.04 98.73 527.592V520.2H99.948ZM103.371 529.622C102.839 529.314 102.419 528.894 102.125 528.334C101.817 527.788 101.677 527.158 101.677 526.43C101.677 525.716 101.817 525.086 102.125 524.526C102.419 523.98 102.839 523.546 103.371 523.238C103.903 522.93 104.519 522.776 105.219 522.776C105.905 522.776 106.521 522.93 107.053 523.238C107.585 523.546 108.005 523.98 108.313 524.526C108.607 525.086 108.761 525.716 108.761 526.43C108.761 527.158 108.607 527.788 108.313 528.334C108.005 528.894 107.585 529.314 107.053 529.622C106.521 529.93 105.905 530.084 105.219 530.084C104.519 530.084 103.903 529.93 103.371 529.622ZM106.451 528.726C106.815 528.502 107.095 528.194 107.291 527.788C107.487 527.396 107.585 526.934 107.585 526.43C107.585 525.926 107.487 525.478 107.291 525.072C107.095 524.68 106.815 524.358 106.451 524.134C106.087 523.91 105.681 523.798 105.219 523.798C104.743 523.798 104.337 523.91 103.973 524.134C103.609 524.358 103.343 524.68 103.147 525.072C102.951 525.478 102.853 525.926 102.853 526.43C102.853 526.934 102.951 527.396 103.147 527.788C103.343 528.194 103.609 528.502 103.973 528.726C104.337 528.95 104.743 529.062 105.219 529.062C105.681 529.062 106.087 528.95 106.451 528.726ZM115.689 523.21C116.207 523.504 116.613 523.924 116.907 524.47C117.201 525.03 117.355 525.674 117.355 526.43C117.355 527.158 117.201 527.788 116.907 528.334C116.613 528.894 116.207 529.314 115.689 529.622C115.157 529.93 114.569 530.084 113.925 530.084C113.337 530.084 112.847 529.986 112.441 529.776C112.021 529.566 111.699 529.272 111.475 528.908L111.321 530H110.327V520.2H111.475V524.008C112.063 523.196 112.889 522.776 113.925 522.776C114.583 522.776 115.171 522.93 115.689 523.21ZM115.521 528.334C115.955 527.844 116.179 527.214 116.179 526.43C116.179 525.66 115.955 525.03 115.521 524.54C115.087 524.05 114.513 523.798 113.813 523.798C113.351 523.798 112.945 523.91 112.581 524.134C112.217 524.358 111.951 524.666 111.755 525.058C111.559 525.45 111.461 525.898 111.461 526.402C111.461 526.92 111.559 527.382 111.755 527.788C111.951 528.194 112.217 528.502 112.581 528.726C112.945 528.95 113.351 529.062 113.813 529.062C114.513 529.062 115.087 528.824 115.521 528.334ZM122.397 520.2H129.971V521.32H126.793V530H125.575V521.32H122.397V520.2ZM132.39 520.312C132.53 520.452 132.6 520.634 132.6 520.844C132.6 521.068 132.53 521.236 132.39 521.376C132.25 521.516 132.068 521.586 131.858 521.586C131.634 521.586 131.466 521.516 131.326 521.376C131.186 521.236 131.116 521.068 131.116 520.844C131.116 520.634 131.186 520.452 131.326 520.312C131.466 520.172 131.634 520.102 131.858 520.102C132.068 520.102 132.25 520.172 132.39 520.312ZM131.284 522.86H132.432V530H131.284V522.86ZM134.731 523.91H133.443V522.86H134.731V520.858H135.879V522.86H137.685V523.91H135.879V528.124C135.879 528.432 135.935 528.642 136.047 528.768C136.159 528.894 136.369 528.95 136.663 528.95H137.909V530H136.593C135.921 530 135.431 529.86 135.151 529.552C134.871 529.258 134.731 528.782 134.731 528.138V523.91ZM138.975 520.858H140.123V522.86H141.929V523.91H140.123V528.124C140.123 528.432 140.179 528.642 140.291 528.768C140.403 528.894 140.613 528.95 140.907 528.95H142.153V530H140.837C140.165 530 139.675 529.86 139.395 529.552C139.115 529.258 138.975 528.782 138.975 528.138V520.858ZM143.218 520.2H144.366V530H143.218V520.2ZM146.356 524.512C146.636 523.966 147.042 523.546 147.56 523.238C148.064 522.93 148.652 522.776 149.324 522.776C149.968 522.776 150.556 522.916 151.06 523.182C151.564 523.462 151.956 523.854 152.25 524.358C152.53 524.876 152.684 525.478 152.712 526.164C152.712 526.276 152.698 526.43 152.684 526.654H147.14V526.752C147.154 527.452 147.364 528.012 147.784 528.432C148.19 528.852 148.722 529.062 149.394 529.062C149.898 529.062 150.332 528.936 150.696 528.684C151.06 528.432 151.298 528.068 151.424 527.606H152.586C152.446 528.334 152.096 528.936 151.536 529.398C150.976 529.86 150.29 530.084 149.478 530.084C148.764 530.084 148.148 529.944 147.616 529.636C147.084 529.328 146.664 528.908 146.37 528.348C146.076 527.788 145.936 527.158 145.936 526.43C145.936 525.702 146.076 525.072 146.356 524.512ZM151.522 525.702C151.466 525.1 151.228 524.624 150.836 524.288C150.444 523.952 149.94 523.784 149.338 523.784C148.792 523.784 148.316 523.966 147.91 524.316C147.49 524.68 147.266 525.142 147.21 525.702H151.522Z" fill="#8D8E8D"/>
<rect x="80.5" y="500.5" width="487" height="47" rx="15.5" stroke="#B5B6B5"/>
<rect x="80.5" y="572.5" width="487" height="47" rx="15.5" fill="white"/>
<path d="M97.162 594.496C97.54 593.74 98.086 593.166 98.8 592.746C99.5 592.326 100.326 592.116 101.264 592.116C102.342 592.116 103.252 592.41 103.98 592.998C104.708 593.586 105.17 594.398 105.366 595.406H104.148C103.966 594.734 103.616 594.202 103.098 593.81C102.58 593.432 101.95 593.236 101.208 593.236C100.536 593.236 99.934 593.404 99.43 593.726C98.912 594.062 98.52 594.51 98.24 595.098C97.96 595.686 97.834 596.344 97.834 597.1C97.834 597.856 97.96 598.514 98.24 599.102C98.52 599.69 98.912 600.152 99.43 600.474C99.934 600.81 100.536 600.964 101.208 600.964C101.964 600.964 102.594 600.782 103.098 600.404C103.602 600.026 103.938 599.494 104.134 598.794H105.352C105.156 599.816 104.708 600.614 103.98 601.202C103.252 601.79 102.356 602.084 101.264 602.084C100.326 602.084 99.5 601.888 98.8 601.468C98.086 601.048 97.54 600.474 97.162 599.718C96.77 598.962 96.588 598.094 96.588 597.1C96.588 596.12 96.77 595.252 97.162 594.496ZM108.415 601.622C107.883 601.314 107.463 600.894 107.169 600.334C106.861 599.788 106.721 599.158 106.721 598.43C106.721 597.716 106.861 597.086 107.169 596.526C107.463 595.98 107.883 595.546 108.415 595.238C108.947 594.93 109.563 594.776 110.263 594.776C110.949 594.776 111.565 594.93 112.097 595.238C112.629 595.546 113.049 595.98 113.357 596.526C113.651 597.086 113.805 597.716 113.805 598.43C113.805 599.158 113.651 599.788 113.357 600.334C113.049 600.894 112.629 601.314 112.097 601.622C111.565 601.93 110.949 602.084 110.263 602.084C109.563 602.084 108.947 601.93 108.415 601.622ZM111.495 600.726C111.859 600.502 112.139 600.194 112.335 599.788C112.531 599.396 112.629 598.934 112.629 598.43C112.629 597.926 112.531 597.478 112.335 597.072C112.139 596.68 111.859 596.358 111.495 596.134C111.131 595.91 110.725 595.798 110.263 595.798C109.787 595.798 109.381 595.91 109.017 596.134C108.653 596.358 108.387 596.68 108.191 597.072C107.995 597.478 107.897 597.926 107.897 598.43C107.897 598.934 107.995 599.396 108.191 599.788C108.387 600.194 108.653 600.502 109.017 600.726C109.381 600.95 109.787 601.062 110.263 601.062C110.725 601.062 111.131 600.95 111.495 600.726ZM125.284 595.532C125.788 596.036 126.04 596.82 126.04 597.884V602H124.892V597.954C124.892 597.268 124.738 596.736 124.444 596.372C124.15 596.008 123.73 595.826 123.198 595.826C122.596 595.826 122.12 596.036 121.784 596.456C121.448 596.876 121.28 597.45 121.28 598.178V602H120.132V597.954C120.132 597.268 119.978 596.736 119.684 596.372C119.376 596.008 118.956 595.826 118.41 595.826C117.822 595.826 117.36 596.05 117.024 596.498C116.688 596.946 116.52 597.52 116.52 598.234V602H115.372V594.86H116.366L116.52 595.84C117.024 595.14 117.724 594.776 118.606 594.776C119.11 594.776 119.572 594.902 119.964 595.126C120.356 595.35 120.664 595.686 120.86 596.134C121.364 595.238 122.19 594.776 123.338 594.776C124.136 594.776 124.78 595.028 125.284 595.532ZM133.125 595.21C133.643 595.504 134.049 595.924 134.343 596.47C134.637 597.03 134.791 597.674 134.791 598.43C134.791 599.158 134.637 599.788 134.343 600.334C134.049 600.894 133.643 601.314 133.125 601.622C132.593 601.93 132.005 602.084 131.361 602.084C130.773 602.084 130.283 601.986 129.877 601.776C129.457 601.566 129.135 601.272 128.911 600.908V604.8H127.763V594.86H128.757L128.911 596.008C129.499 595.196 130.325 594.776 131.361 594.776C132.019 594.776 132.607 594.93 133.125 595.21ZM132.957 600.334C133.391 599.844 133.615 599.214 133.615 598.43C133.615 597.66 133.391 597.03 132.957 596.54C132.523 596.05 131.949 595.798 131.249 595.798C130.787 595.798 130.381 595.91 130.017 596.134C129.653 596.358 129.387 596.666 129.191 597.058C128.995 597.45 128.897 597.898 128.897 598.402C128.897 598.92 128.995 599.382 129.191 599.788C129.387 600.194 129.653 600.502 130.017 600.726C130.381 600.95 130.787 601.062 131.249 601.062C131.949 601.062 132.523 600.824 132.957 600.334ZM143.03 600.95V602H142.4C141.938 602 141.616 601.916 141.42 601.72C141.224 601.538 141.112 601.258 141.112 600.894C140.552 601.692 139.754 602.084 138.718 602.084C137.92 602.084 137.276 601.902 136.8 601.524C136.324 601.16 136.086 600.642 136.086 599.998C136.086 599.284 136.324 598.738 136.814 598.346C137.304 597.968 138.018 597.772 138.956 597.772H141.056V597.282C141.056 596.82 140.888 596.456 140.58 596.19C140.272 595.938 139.838 595.798 139.278 595.798C138.774 595.798 138.368 595.91 138.046 596.134C137.724 596.358 137.528 596.638 137.458 597.002H136.31C136.394 596.302 136.702 595.756 137.234 595.364C137.766 594.972 138.466 594.776 139.334 594.776C140.244 594.776 140.944 595 141.448 595.448C141.952 595.896 142.204 596.526 142.204 597.352V600.432C142.204 600.782 142.358 600.95 142.68 600.95H143.03ZM141.056 598.738H138.844C137.78 598.738 137.248 599.144 137.248 599.928C137.248 600.292 137.388 600.572 137.668 600.782C137.948 601.006 138.326 601.104 138.802 601.104C139.502 601.104 140.048 600.922 140.454 600.558C140.846 600.194 141.056 599.704 141.056 599.088V598.738ZM149.749 595.56C150.281 596.092 150.547 596.904 150.547 598.024V602H149.399V598.094C149.399 597.366 149.231 596.806 148.895 596.414C148.559 596.022 148.083 595.826 147.467 595.826C146.795 595.826 146.263 596.064 145.885 596.526C145.493 597.002 145.311 597.632 145.311 598.43V602H144.163V594.86H145.157L145.311 595.826C145.843 595.126 146.627 594.776 147.663 594.776C148.531 594.776 149.217 595.042 149.749 595.56ZM152.559 594.86L154.757 600.684L156.885 594.86H158.103L154.813 603.204C154.645 603.638 154.491 603.96 154.365 604.17C154.225 604.394 154.071 604.548 153.875 604.646C153.679 604.758 153.413 604.8 153.091 604.8H151.719V603.75H152.741C152.965 603.75 153.133 603.736 153.245 603.68C153.357 603.638 153.441 603.568 153.511 603.456C153.581 603.344 153.665 603.162 153.777 602.91L154.141 602.056L151.341 594.86H152.559ZM164.132 598.794C164.174 599.466 164.44 599.998 164.93 600.39C165.406 600.782 166.022 600.978 166.778 600.978C167.45 600.978 167.982 600.838 168.402 600.544C168.822 600.25 169.032 599.844 169.032 599.312C169.032 598.934 168.906 598.626 168.682 598.402C168.458 598.178 168.164 598.024 167.8 597.912C167.436 597.8 166.96 597.702 166.344 597.59C165.364 597.422 164.58 597.156 164.006 596.764C163.418 596.386 163.138 595.77 163.138 594.902C163.138 594.356 163.278 593.866 163.558 593.446C163.838 593.026 164.23 592.69 164.734 592.452C165.238 592.228 165.826 592.102 166.484 592.102C167.17 592.102 167.786 592.228 168.318 592.48C168.85 592.732 169.27 593.096 169.578 593.544C169.886 593.992 170.054 594.51 170.096 595.098H168.892C168.808 594.538 168.556 594.076 168.122 593.726C167.674 593.39 167.128 593.208 166.484 593.208C165.826 593.208 165.308 593.362 164.93 593.642C164.538 593.922 164.356 594.328 164.356 594.832C164.356 595.21 164.468 595.504 164.692 595.714C164.916 595.924 165.196 596.078 165.56 596.19C165.91 596.302 166.4 596.4 167.016 596.498C167.996 596.666 168.78 596.946 169.368 597.338C169.956 597.73 170.25 598.346 170.25 599.2C170.25 599.76 170.096 600.264 169.802 600.698C169.508 601.146 169.102 601.482 168.57 601.72C168.038 601.972 167.436 602.084 166.764 602.084C165.994 602.084 165.322 601.958 164.762 601.678C164.188 601.398 163.74 601.02 163.432 600.516C163.124 600.012 162.956 599.438 162.928 598.794H164.132ZM172.984 592.312C173.124 592.452 173.194 592.634 173.194 592.844C173.194 593.068 173.124 593.236 172.984 593.376C172.844 593.516 172.662 593.586 172.452 593.586C172.228 593.586 172.06 593.516 171.92 593.376C171.78 593.236 171.71 593.068 171.71 592.844C171.71 592.634 171.78 592.452 171.92 592.312C172.06 592.172 172.228 592.102 172.452 592.102C172.662 592.102 172.844 592.172 172.984 592.312ZM171.878 594.86H173.026V602H171.878V594.86ZM174.554 594.86H180.238V595.728L175.898 600.95H180.42V602H174.372V601.132L178.698 595.91H174.554V594.86ZM181.556 596.512C181.836 595.966 182.242 595.546 182.76 595.238C183.264 594.93 183.852 594.776 184.524 594.776C185.168 594.776 185.756 594.916 186.26 595.182C186.764 595.462 187.156 595.854 187.45 596.358C187.73 596.876 187.884 597.478 187.912 598.164C187.912 598.276 187.898 598.43 187.884 598.654H182.34V598.752C182.354 599.452 182.564 600.012 182.984 600.432C183.39 600.852 183.922 601.062 184.594 601.062C185.098 601.062 185.532 600.936 185.896 600.684C186.26 600.432 186.498 600.068 186.624 599.606H187.786C187.646 600.334 187.296 600.936 186.736 601.398C186.176 601.86 185.49 602.084 184.678 602.084C183.964 602.084 183.348 601.944 182.816 601.636C182.284 601.328 181.864 600.908 181.57 600.348C181.276 599.788 181.136 599.158 181.136 598.43C181.136 597.702 181.276 597.072 181.556 596.512ZM186.722 597.702C186.666 597.1 186.428 596.624 186.036 596.288C185.644 595.952 185.14 595.784 184.538 595.784C183.992 595.784 183.516 595.966 183.11 596.316C182.69 596.68 182.466 597.142 182.41 597.702H186.722Z" fill="#8D8E8D"/>
<rect x="80.5" y="572.5" width="487" height="47" rx="15.5" stroke="#B5B6B5"/>
<rect x="80" y="652" width="488" height="48" rx="24" fill="#11453B"/>
<path d="M275.44 670.8C276.208 670.8 276.896 670.96 277.488 671.248C278.064 671.536 278.528 671.952 278.848 672.496C279.168 673.04 279.344 673.664 279.344 674.368C279.344 675.12 279.136 675.776 278.752 676.336C278.352 676.912 277.824 677.312 277.168 677.536L279.536 682H277.488L275.36 677.936H272.864V682H271.024V670.8H275.44ZM272.864 676.336H275.296C275.952 676.336 276.48 676.16 276.864 675.808C277.248 675.456 277.456 674.976 277.456 674.368C277.456 673.776 277.248 673.296 276.864 672.944C276.48 672.592 275.952 672.4 275.296 672.4H272.864V676.336ZM280.649 675.712C280.985 675.072 281.449 674.592 282.057 674.24C282.665 673.888 283.353 673.712 284.137 673.712C284.921 673.712 285.609 673.872 286.217 674.192C286.825 674.512 287.289 674.976 287.641 675.552C287.993 676.144 288.169 676.832 288.185 677.616C288.185 677.84 288.169 678.048 288.137 678.272H281.961V678.368C281.993 679.088 282.217 679.648 282.633 680.064C283.033 680.48 283.577 680.688 284.249 680.688C284.777 680.688 285.225 680.576 285.593 680.32C285.945 680.064 286.185 679.712 286.313 679.248H288.041C287.881 680.08 287.481 680.768 286.825 681.296C286.169 681.84 285.353 682.096 284.377 682.096C283.513 682.096 282.777 681.936 282.137 681.584C281.497 681.232 281.017 680.752 280.665 680.112C280.313 679.488 280.153 678.752 280.153 677.92C280.153 677.088 280.313 676.352 280.649 675.712ZM286.425 677.008C286.345 676.416 286.105 675.952 285.705 675.616C285.305 675.28 284.809 675.104 284.201 675.104C283.625 675.104 283.145 675.28 282.729 675.632C282.313 675.984 282.089 676.432 282.025 677.008H286.425ZM297.534 673.808V685.2H295.806V680.784C295.15 681.664 294.27 682.096 293.15 682.096C292.398 682.096 291.726 681.936 291.15 681.6C290.558 681.264 290.094 680.784 289.774 680.144C289.438 679.52 289.278 678.768 289.278 677.904C289.278 677.088 289.438 676.368 289.774 675.728C290.11 675.088 290.574 674.592 291.166 674.24C291.742 673.888 292.414 673.712 293.15 673.712C293.758 673.712 294.302 673.84 294.75 674.064C295.198 674.288 295.566 674.592 295.838 674.976L296.03 673.808H297.534ZM295.166 679.888C295.598 679.376 295.822 678.72 295.822 677.92C295.822 677.12 295.598 676.464 295.166 675.952C294.718 675.44 294.142 675.184 293.438 675.184C292.718 675.184 292.142 675.44 291.71 675.936C291.262 676.448 291.054 677.104 291.054 677.904C291.054 678.72 291.262 679.376 291.71 679.888C292.142 680.4 292.718 680.64 293.438 680.64C294.142 680.64 294.718 680.4 295.166 679.888ZM306.567 673.808V682H305.047L304.855 680.96C304.231 681.728 303.383 682.096 302.327 682.096C301.367 682.096 300.583 681.808 299.991 681.2C299.383 680.608 299.095 679.648 299.095 678.32V673.808H300.823V678.144C300.823 678.944 300.983 679.552 301.303 679.968C301.623 680.384 302.087 680.592 302.727 680.592C303.383 680.592 303.895 680.352 304.279 679.872C304.647 679.392 304.839 678.72 304.839 677.872V673.808H306.567ZM308.462 675.712C308.798 675.072 309.262 674.592 309.87 674.24C310.478 673.888 311.166 673.712 311.95 673.712C312.734 673.712 313.422 673.872 314.03 674.192C314.638 674.512 315.102 674.976 315.454 675.552C315.806 676.144 315.982 676.832 315.998 677.616C315.998 677.84 315.982 678.048 315.95 678.272H309.774V678.368C309.806 679.088 310.03 679.648 310.446 680.064C310.846 680.48 311.39 680.688 312.062 680.688C312.59 680.688 313.038 680.576 313.406 680.32C313.758 680.064 313.998 679.712 314.126 679.248H315.854C315.694 680.08 315.294 680.768 314.638 681.296C313.982 681.84 313.166 682.096 312.19 682.096C311.326 682.096 310.59 681.936 309.95 681.584C309.31 681.232 308.83 680.752 308.478 680.112C308.126 679.488 307.966 678.752 307.966 677.92C307.966 677.088 308.126 676.352 308.462 675.712ZM314.238 677.008C314.158 676.416 313.918 675.952 313.518 675.616C313.118 675.28 312.622 675.104 312.014 675.104C311.438 675.104 310.958 675.28 310.542 675.632C310.126 675.984 309.902 676.432 309.838 677.008H314.238ZM318.724 679.296C318.756 679.728 318.948 680.08 319.316 680.352C319.684 680.624 320.164 680.752 320.756 680.752C321.268 680.752 321.7 680.656 322.02 680.464C322.34 680.272 322.516 680 322.516 679.664C322.516 679.392 322.436 679.184 322.292 679.04C322.132 678.912 321.94 678.816 321.684 678.752C321.428 678.688 321.044 678.624 320.532 678.56C319.812 678.48 319.22 678.368 318.756 678.224C318.292 678.08 317.924 677.856 317.636 677.536C317.348 677.216 317.22 676.8 317.22 676.256C317.22 675.76 317.348 675.312 317.636 674.928C317.924 674.544 318.308 674.24 318.804 674.016C319.3 673.808 319.86 673.696 320.5 673.696C321.524 673.696 322.372 673.936 323.012 674.384C323.652 674.848 324.004 675.488 324.068 676.32H322.388C322.34 675.952 322.148 675.648 321.828 675.408C321.492 675.168 321.076 675.04 320.58 675.04C320.068 675.04 319.668 675.136 319.364 675.328C319.044 675.52 318.9 675.792 318.9 676.112C318.9 676.368 318.964 676.544 319.124 676.672C319.284 676.8 319.476 676.88 319.716 676.928C319.94 676.976 320.324 677.024 320.852 677.088C321.556 677.168 322.148 677.28 322.628 677.44C323.108 677.6 323.492 677.84 323.78 678.176C324.068 678.512 324.212 678.96 324.212 679.536C324.212 680.048 324.052 680.512 323.764 680.896C323.46 681.28 323.044 681.584 322.532 681.792C322.004 682 321.412 682.096 320.772 682.096C319.668 682.096 318.772 681.856 318.1 681.36C317.428 680.864 317.076 680.176 317.06 679.296H318.724ZM326.142 675.328H324.718V673.808H326.142V671.52H327.886V673.808H329.854V675.328H327.886V679.6C327.886 679.92 327.95 680.16 328.078 680.288C328.206 680.416 328.414 680.48 328.734 680.48H330.046V682H328.382C327.598 682 327.022 681.824 326.67 681.456C326.318 681.104 326.142 680.544 326.142 679.776V675.328ZM335.243 670.8H338.811C339.947 670.8 340.939 671.04 341.803 671.504C342.651 671.984 343.307 672.64 343.771 673.472C344.219 674.32 344.459 675.296 344.459 676.4C344.459 677.504 344.219 678.48 343.771 679.328C343.307 680.176 342.651 680.832 341.803 681.296C340.939 681.776 339.947 682 338.811 682H335.243V670.8ZM338.811 680.4C340.011 680.4 340.939 680.048 341.595 679.328C342.235 678.608 342.571 677.632 342.571 676.4C342.571 675.184 342.235 674.208 341.595 673.488C340.939 672.768 340.011 672.4 338.811 672.4H337.083V680.4H338.811ZM346.087 675.712C346.423 675.072 346.887 674.592 347.495 674.24C348.103 673.888 348.791 673.712 349.575 673.712C350.359 673.712 351.047 673.872 351.655 674.192C352.263 674.512 352.727 674.976 353.079 675.552C353.431 676.144 353.607 676.832 353.623 677.616C353.623 677.84 353.607 678.048 353.575 678.272H347.399V678.368C347.431 679.088 347.655 679.648 348.071 680.064C348.471 680.48 349.015 680.688 349.687 680.688C350.215 680.688 350.663 680.576 351.031 680.32C351.383 680.064 351.623 679.712 351.751 679.248H353.479C353.319 680.08 352.919 680.768 352.263 681.296C351.607 681.84 350.791 682.096 349.815 682.096C348.951 682.096 348.215 681.936 347.575 681.584C346.935 681.232 346.455 680.752 346.103 680.112C345.751 679.488 345.591 678.752 345.591 677.92C345.591 677.088 345.751 676.352 346.087 675.712ZM351.863 677.008C351.783 676.416 351.543 675.952 351.143 675.616C350.743 675.28 350.247 675.104 349.639 675.104C349.063 675.104 348.583 675.28 348.167 675.632C347.751 675.984 347.527 676.432 347.463 677.008H351.863ZM366.668 674.592C367.228 675.168 367.516 676.096 367.516 677.376V682H365.788V677.392C365.788 676.688 365.644 676.144 365.356 675.76C365.068 675.392 364.636 675.2 364.076 675.2C363.468 675.2 363.004 675.424 362.652 675.84C362.3 676.256 362.14 676.832 362.14 677.568V682H360.396V677.392C360.396 676.672 360.236 676.128 359.948 675.76C359.66 675.392 359.228 675.2 358.668 675.2C358.076 675.2 357.612 675.424 357.26 675.856C356.908 676.304 356.748 676.88 356.748 677.616V682H355.02V673.808H356.524L356.716 674.88C357.292 674.112 358.092 673.728 359.116 673.712C359.692 673.712 360.188 673.84 360.636 674.08C361.068 674.336 361.404 674.704 361.644 675.2C361.932 674.736 362.3 674.368 362.78 674.112C363.244 673.856 363.804 673.712 364.476 673.712C365.372 673.712 366.092 674.016 366.668 674.592ZM370.762 681.584C370.122 681.232 369.642 680.752 369.29 680.112C368.938 679.472 368.778 678.736 368.778 677.904C368.778 677.088 368.938 676.368 369.29 675.728C369.642 675.088 370.122 674.592 370.762 674.24C371.402 673.888 372.122 673.712 372.954 673.712C373.77 673.712 374.49 673.888 375.13 674.24C375.77 674.592 376.25 675.088 376.602 675.728C376.954 676.368 377.13 677.088 377.13 677.904C377.13 678.736 376.954 679.472 376.602 680.112C376.25 680.752 375.77 681.232 375.13 681.584C374.49 681.936 373.77 682.096 372.954 682.096C372.122 682.096 371.402 681.936 370.762 681.584ZM374.698 679.872C375.146 679.36 375.37 678.704 375.37 677.904C375.37 677.104 375.146 676.464 374.698 675.952C374.25 675.44 373.674 675.184 372.954 675.184C372.218 675.184 371.642 675.44 371.21 675.952C370.762 676.464 370.554 677.104 370.554 677.904C370.554 678.704 370.762 679.36 371.21 679.872C371.642 680.384 372.218 680.624 372.954 680.624C373.674 680.624 374.25 680.384 374.698 679.872Z" fill="white"/>
<rect x="48.5" y="28.5" width="551" height="703" rx="31.5" stroke="#E7E8E7"/>
</g>
<defs>
<filter id="filter0_d_4_4601" x="0" y="0" width="648" height="800" filterUnits="userSpaceOnUse" color-interpolation-filters="sRGB">
<feFlood flood-opacity="0" result="BackgroundImageFix"/>
<feColorMatrix in="SourceAlpha" type="matrix" values="0 0 0 0 0 0 0 0 0 0 0 0 0 0 0 0 0 0 127 0" result="hardAlpha"/>
<feOffset dy="20"/>
<feGaussianBlur stdDeviation="24"/>
<feColorMatrix type="matrix" values="0 0 0 0 0.666667 0 0 0 0 0.666667 0 0 0 0 0.666667 0 0 0 0.29 0"/>
<feBlend mode="normal" in2="BackgroundImageFix" result="effect1_dropShadow_4_4601"/>
<feBlend mode="normal" in="SourceGraphic" in2="effect1_dropShadow_4_4601" result="shape"/>
</filter>
<filter id="filter1_dd_4_4601" x="49.9778" y="170.85" width="306.044" height="116.044" filterUnits="userSpaceOnUse" color-interpolation-filters="sRGB">
<feFlood flood-opacity="0" result="BackgroundImageFix"/>
<feColorMatrix in="SourceAlpha" type="matrix" values="0 0 0 0 0 0 0 0 0 0 0 0 0 0 0 0 0 0 127 0" result="hardAlpha"/>
<feMorphology radius="2.53481" operator="erode" in="SourceAlpha" result="effect1_dropShadow_4_4601"/>
<feOffset dy="8.87185"/>
<feGaussianBlur stdDeviation="20.2785"/>
<feColorMatrix type="matrix" values="0 0 0 0 0.0941176 0 0 0 0 0.152941 0 0 0 0 0.294118 0 0 0 0.12 0"/>
<feBlend mode="normal" in2="BackgroundImageFix" result="effect1_dropShadow_4_4601"/>
<feColorMatrix in="SourceAlpha" type="matrix" values="0 0 0 0 0 0 0 0 0 0 0 0 0 0 0 0 0 0 127 0" result="hardAlpha"/>
<feMorphology radius="3.80222" operator="erode" in="SourceAlpha" result="effect2_dropShadow_4_4601"/>
<feOffset dy="5.06963"/>
<feGaussianBlur stdDeviation="6.97074"/>
<feColorMatrix type="matrix" values="0 0 0 0 0.0941176 0 0 0 0 0.152941 0 0 0 0 0.294118 0 0 0 0.12 0"/>
<feBlend mode="normal" in2="effect1_dropShadow_4_4601" result="effect2_dropShadow_4_4601"/>
<feBlend mode="normal" in="SourceGraphic" in2="effect2_dropShadow_4_4601" result="shape"/>
</filter>
</defs>
</svg>
